<?xml version="1.0" encoding="UTF-8"?>
<svg id="logos" xmlns="http://www.w3.org/2000/svg" viewBox="0 0 3500 1200">
  <defs>
    <style>
      .cls-1 {
        fill: #132e49;
      }
    </style>
  </defs>
  <g>
    <g>
      <path class="cls-1" d="M3096.58,684.8c98.06,0,176.89-41.86,225.17-112.72l-45.04-31.31c-39.41,57.12-100.59,91.75-180.13,91.75-127.91,0-220.41-97.41-220.41-227.71s92.49-227.62,220.41-227.62c78.75,0,137.53,33.77,172.89,86.05l44.26-32.11c-46.7-70-120.69-106.22-217.15-106.22-155.32,0-280.71,115.03-280.71,279.9s125.4,279.98,280.71,279.98"/>
      <path class="cls-1" d="M2579.41,125.76h-9.69l-226.76,552.53h57.12l36.17-91.68h276.65l37.02,91.68h61.11l-231.62-552.53Zm-123.06,411.02l96.51-242.96c10.44-25.73,21.77-65.14,21.77-65.14,0,0,10.42,39.41,20.86,65.14l96.58,242.96h-235.72Z"/>
      <path class="cls-1" d="M2042.14,131.4h-132.7V678.29h132.7c183.39,0,295.96-107.74,295.96-273.48s-113.43-273.41-295.96-273.41Zm-4.01,494.61h-70.75V183.7h70.75c161.65,0,238.87,90.89,238.87,221.11s-77.22,221.2-238.87,221.2Z"/>
      <polygon class="cls-1" points="1475.15 678.29 1819.38 678.29 1819.38 626.8 1533.09 626.8 1533.09 490.08 1778.35 490.08 1778.35 439.45 1533.09 439.45 1533.09 182.88 1808.12 182.88 1808.12 131.4 1475.15 131.4 1475.15 678.29"/>
      <path class="cls-1" d="M1231.26,125.76h-9.67l-149.53,389.25c-8.87,22.5-16.9,53.87-16.9,53.87,0,0-7.29-31.38-16.15-53.87L891.86,125.76h-9.69l-180.09,552.53h58.67l114.22-364.29c7.2-23.37,15.26-59.59,15.26-59.59,0,0,8.83,36.22,17.69,59.59l142.4,369.94h9.61l142.39-369.94c8.85-23.37,17.71-59.59,17.71-59.59,0,0,8.02,35.44,15.25,59.59l115.01,364.29h61.92L1231.26,125.76Z"/>
    </g>
    <g>
      <path class="cls-1" d="M181.05,489.02s26.5-16.97,67.41-16.97,93.38,28.39,142.95,26.76c32.45,0,80.84-19.56,124.72-26.76,43.68-2.67,81.98,11.46,81.98,11.46,0,0,0,44.3-78.15,107.23-18.72,13.44-130.97,94.05-130.97,94.05,0,0-101.67-70.26-149.2-109.53-47.53-39.27-58.75-86.25-58.75-86.25Z"/>
      <path class="cls-1" d="M600.25,424.51v31.6s-45.19-12.68-70.13-12.03c-38.61,1.02-106.15,21.38-140.04,21.73-33.89,.35-96.2-19.79-134.24-21.12-38.04-1.33-76.91,17.53-76.91,17.53v-31.61s31.56-15.78,75.21-15.62c41.85,.16,82.74,22.4,136.82,20.73,54.08-1.67,101.91-23.05,139.17-23.24,37.25-.19,70.13,12.03,70.13,12.03Z"/>
      <path class="cls-1" d="M293.2,209.94l7.13,33.15,32.2,6.93-32.2,7.35-6.95,32.31-7.31-32.31-33.15-7.14,32.97-7.6,7.32-32.68Zm-114.29,188.38s38.83-13.31,76.19-13.31c48.42,0,75.6,24.87,142.74,20.53,67.15-4.34,91.1-20.41,141.1-20.53,49.99-.12,61.3,7.21,61.3,7.21V237.66l-70.13,129.15-24.95,3.06,95.09-174.36v-42.12s-125.89,222.86-125.89,222.86l-29.34,3.87,147.27-255.1h-24.33l-151.89,260.66-25.26,1.63L543.65,125.01h-24.33l-149.75,261.14-21.85-1.22L495,125.01H178.92V398.32Z"/>
    </g>
  </g>
  <g>
    <path class="cls-1" d="M181.34,863.58h129.59v26.21h-101.63v64.65h94.64v26.21h-94.64v89.1h-27.96v-206.18Z"/>
    <path class="cls-1" d="M547.38,863.58v126.38c0,6.41,.87,13.06,2.62,19.95,1.75,6.9,4.66,13.25,8.73,19.08,4.08,5.82,9.41,10.58,16.02,14.27,6.59,3.69,14.75,5.53,24.46,5.53s17.86-1.84,24.46-5.53c6.6-3.69,11.94-8.45,16.02-14.27,4.07-5.83,6.99-12.18,8.73-19.08,1.75-6.89,2.62-13.54,2.62-19.95v-126.38h27.96v130.75c0,12.05-2.04,22.97-6.12,32.77-4.08,9.81-9.71,18.3-16.89,25.48-7.18,7.18-15.63,12.72-25.34,16.6-9.71,3.88-20.19,5.83-31.45,5.83s-21.74-1.95-31.45-5.83c-9.71-3.88-18.15-9.42-25.34-16.6-7.18-7.18-12.81-15.67-16.89-25.48-4.08-9.8-6.12-20.72-6.12-32.77v-130.75h27.96Z"/>
    <path class="cls-1" d="M902.95,863.58h36.69l113.57,169.48h.58v-169.48h27.96v206.18h-35.53l-114.74-169.48h-.58v169.48h-27.96v-206.18Z"/>
    <path class="cls-1" d="M1304.81,863.58h71.93c14.56,0,27.32,1.65,38.29,4.95,10.96,3.31,20.48,7.72,28.54,13.25,8.05,5.53,14.75,11.9,20.09,19.08,5.34,7.18,9.56,14.56,12.67,22.13,3.1,7.57,5.33,15.14,6.7,22.71,1.36,7.57,2.04,14.56,2.04,20.97,0,13.21-2.43,25.97-7.28,38.3-4.86,12.33-12.04,23.3-21.55,32.9-9.51,9.61-21.3,17.33-35.38,23.15-14.08,5.83-30.34,8.74-48.78,8.74h-67.27v-206.18Zm27.96,179.97h35.24c11.84,0,23.05-1.6,33.64-4.81,10.58-3.2,19.85-8,27.81-14.41,7.96-6.41,14.27-14.42,18.93-24.03,4.66-9.61,6.99-20.82,6.99-33.64,0-6.6-1.07-14.31-3.2-23.15-2.14-8.84-6.17-17.23-12.09-25.19-5.92-7.96-14.12-14.7-24.61-20.23-10.48-5.54-24.07-8.31-40.77-8.31h-41.94v153.76Z"/>
    <path class="cls-1" d="M1764.64,863.58h25.32l88.25,206.18h-32.61l-20.68-50.96h-98.14l-20.38,50.96h-32.62l90.86-206.18Zm50.09,130.75l-38.46-94.63h-.57l-39.03,94.63h78.06Z"/>
    <path class="cls-1" d="M2223.28,908.14c-5.83-7.57-13.2-13.4-22.13-17.47-8.93-4.08-18.16-6.12-27.66-6.12-11.65,0-22.18,2.19-31.6,6.56-9.42,4.36-17.47,10.34-24.16,17.9-6.71,7.57-11.9,16.45-15.58,26.65-3.69,10.19-5.53,21.1-5.53,32.76,0,10.88,1.75,21.17,5.24,30.87,3.49,9.7,8.54,18.25,15.14,25.63,6.6,7.37,14.65,13.2,24.18,17.47,9.5,4.27,20.28,6.41,32.32,6.41s22.23-2.43,31.16-7.28c8.93-4.85,16.49-11.65,22.71-20.39l23.59,17.77c-1.56,2.14-4.28,5.2-8.16,9.17-3.89,3.98-9.03,7.97-15.44,11.94-6.41,3.98-14.12,7.48-23.15,10.49-9.03,3.01-19.47,4.51-31.3,4.51-16.31,0-31.02-3.11-44.12-9.32-13.1-6.21-24.27-14.37-33.49-24.46-9.23-10.1-16.26-21.49-21.11-34.22-4.85-12.71-7.28-25.57-7.28-38.58,0-15.91,2.62-30.63,7.86-44.11,5.24-13.5,12.56-25.15,21.99-34.95,9.41-9.8,20.72-17.43,33.92-22.86,13.2-5.43,27.76-8.16,43.68-8.16,13.59,0,26.94,2.63,40.04,7.87,13.1,5.23,23.83,13.3,32.17,24.16l-23.3,17.77Z"/>
    <path class="cls-1" d="M2459.45,863.58h27.96v206.18h-27.96v-206.18Z"/>
    <path class="cls-1" d="M2809.78,1075c-15.73,0-30.2-2.76-43.4-8.31-13.2-5.53-24.5-13.15-33.92-22.85-9.42-9.71-16.79-21.17-22.13-34.37-5.34-13.2-8.01-27.47-8.01-42.81s2.67-29.6,8.01-42.81c5.34-13.2,12.71-24.65,22.13-34.36,9.42-9.7,20.72-17.33,33.92-22.86,13.2-5.53,27.67-8.31,43.4-8.31s30.19,2.78,43.39,8.31c13.2,5.53,24.5,13.16,33.92,22.86,9.42,9.7,16.79,21.16,22.14,34.36,5.33,13.21,8,27.48,8,42.81s-2.67,29.61-8,42.81c-5.35,13.2-12.72,24.65-22.14,34.37-9.42,9.7-20.72,17.32-33.92,22.85-13.2,5.54-27.66,8.31-43.39,8.31Zm0-26.21c11.84,0,22.52-2.18,32.04-6.56,9.51-4.36,17.66-10.23,24.46-17.62,6.79-7.37,12.03-16.06,15.72-26.06,3.69-10,5.54-20.63,5.54-31.89s-1.85-21.89-5.54-31.89c-3.69-10-8.93-18.68-15.72-26.06-6.8-7.37-14.95-13.25-24.46-17.62-9.51-4.36-20.19-6.56-32.04-6.56s-22.53,2.19-32.04,6.56c-9.51,4.36-17.66,10.24-24.46,17.62-6.79,7.38-12.03,16.06-15.72,26.06-3.69,10-5.53,20.63-5.53,31.89s1.84,21.89,5.53,31.89c3.69,10,8.93,18.69,15.72,26.06,6.8,7.38,14.95,13.25,24.46,17.62,9.51,4.38,20.19,6.56,32.04,6.56Zm11.07-238.8h37.27l-43.38,41.94h-24.18l30.29-41.94Z"/>
    <path class="cls-1" d="M3132.14,863.58h36.7l113.57,169.48h.58v-169.48h27.96v206.18h-35.52l-114.74-169.48h-.58v169.48h-27.96v-206.18Z"/>
  </g>
</svg>