<?xml version="1.0" encoding="UTF-8"?>
<svg id="logos" xmlns="http://www.w3.org/2000/svg" viewBox="0 0 326.3 286.98">
  <defs>
    <style>
      .cls-1 {
        fill: #122f4a;
      }
    </style>
  </defs>
  <g>
    <path class="cls-1" d="M183.59,117.89c-5,1.33-11.22,2.99-20.78,3.01h0s-.06,0-.09,0c-.03,0-.06,0-.09,0h0c-9.55-.02-15.78-1.68-20.78-3.01-3.72-.99-6.93-1.85-10.71-1.85-6.92,0-14.55,2.23-18.08,3.4,.06,.33,.13,.64,.2,.93-.02,.02-.03,.03-.03,.03,0,0,2.66,11.12,13.91,20.42,11.25,9.3,35.33,25.93,35.33,25.93,0,0,26.58-19.09,31.01-22.27,12.86-10.35,16.78-18.58,17.98-22.63l.05,.03s.43-1.17,.66-2.51c-3.62-1.19-11.08-3.33-17.85-3.33-3.78,0-6.99,.86-10.71,1.85Z"/>
    <path class="cls-1" d="M183.59,104.49c-5,1.33-11.22,2.99-20.78,3.01h0s-.06,0-.09,0c-.03,0-.06,0-.09,0h0c-9.55-.02-15.78-1.68-20.78-3.01-3.72-.99-6.93-1.85-10.71-1.85-7.15,0-15.06,2.38-18.42,3.52v6.5c4.34-1.34,11.55-3.18,18.42-3.18,4.64,0,8.41,1,12.4,2.07,4.89,1.3,10.43,2.78,19.18,2.79,8.75-.01,14.29-1.49,19.18-2.79,3.99-1.06,7.76-2.07,12.4-2.07,6.74,0,13.82,1.77,18.18,3.1v-6.5c-3.48-1.16-11.2-3.44-18.18-3.44-3.78,0-6.99,.86-10.71,1.85Z"/>
    <path class="cls-1" d="M212.48,40.42l-30.26,52.83c-.12,.03-.24,.06-.36,.1-1.84,.49-3.78,1.01-5.94,1.46l34.7-60.58h-6.01l-35.29,61.61c-1.71,.17-3.56,.29-5.59,.32l35.48-61.93h-6.01l-35.4,61.8c-1.85-.12-3.54-.3-5.11-.53l35.1-61.28H112.71V99.25c4.34-1.34,11.55-3.18,18.42-3.18,4.64,0,8.41,1,12.4,2.07,4.89,1.3,10.43,2.78,19.18,2.79,8.75-.01,14.29-1.49,19.18-2.79,3.99-1.06,7.76-2.07,12.4-2.07,6.74,0,13.82,1.77,18.18,3.1V60.94l-17.4,30.37c-.35,0-.71-.01-1.06-.01-1.59,0-3.09,.12-4.53,.33l22.99-40.13v-11.09Zm-71.1,25.14l-1.65,7.65-1.73-7.65-7.85-1.69,7.81-1.8,1.73-7.74,1.69,7.85,7.62,1.64-7.62,1.74Z"/>
  </g>
  <g>
    <path class="cls-1" d="M261.01,243.27c8.94,0,16.12-3.81,20.52-10.27l-4.1-2.85c-3.59,5.21-9.17,8.36-16.42,8.36-11.66,0-20.09-8.88-20.09-20.75s8.43-20.74,20.09-20.74c7.18,0,12.53,3.08,15.76,7.84l4.03-2.93c-4.26-6.38-11-9.68-19.79-9.68-14.15,0-25.58,10.48-25.58,25.51s11.43,25.52,25.58,25.52"/>
    <path class="cls-1" d="M213.88,192.32h-.88l-20.67,50.35h5.21l3.3-8.36h25.21l3.37,8.36h5.57l-21.11-50.35Zm-11.22,37.46l8.8-22.14c.95-2.34,1.98-5.94,1.98-5.94,0,0,.95,3.59,1.9,5.94l8.8,22.14h-21.48Z"/>
    <path class="cls-1" d="M164.91,192.84h-12.09v49.84h12.09c16.71,0,26.97-9.82,26.97-24.92s-10.34-24.92-26.97-24.92Zm-.37,45.08h-6.45v-40.31h6.45c14.73,0,21.77,8.28,21.77,20.15s-7.04,20.16-21.77,20.16Z"/>
    <polygon class="cls-1" points="113.24 242.68 144.61 242.68 144.61 237.99 118.52 237.99 118.52 225.53 140.87 225.53 140.87 220.91 118.52 220.91 118.52 197.53 143.59 197.53 143.59 192.84 113.24 192.84 113.24 242.68"/>
    <path class="cls-1" d="M91.02,192.32h-.88l-13.63,35.47c-.81,2.05-1.54,4.91-1.54,4.91,0,0-.66-2.86-1.47-4.91l-13.41-35.47h-.88l-16.41,50.35h5.35l10.41-33.2c.66-2.13,1.39-5.43,1.39-5.43,0,0,.8,3.3,1.61,5.43l12.98,33.71h.88l12.98-33.71c.81-2.13,1.61-5.43,1.61-5.43,0,0,.73,3.23,1.39,5.43l10.48,33.2h5.64l-16.49-50.35Z"/>
  </g>
</svg>