<?xml version="1.0" encoding="UTF-8"?>
<svg id="logos" xmlns="http://www.w3.org/2000/svg" viewBox="0 0 366.43 373.78">
  <defs>
    <style>
      .cls-1 {
        fill: #122f4a;
      }
    </style>
  </defs>
  <g>
    <path class="cls-1" d="M214.63,182.25c-7.43,1.98-16.66,4.44-30.85,4.47h0s-.09,0-.14,0c-.05,0-.09,0-.14,0h0c-14.18-.03-23.42-2.49-30.85-4.47-5.52-1.47-10.29-2.74-15.9-2.74-10.27,0-21.6,3.31-26.84,5.05,.09,.48,.19,.95,.29,1.38-.03,.03-.05,.04-.05,.04,0,0,3.94,16.51,20.65,30.32,16.71,13.8,52.44,38.5,52.44,38.5,0,0,39.46-28.33,46.04-33.06,19.09-15.37,24.91-27.58,26.69-33.6l.07,.04s.64-1.73,.98-3.73c-5.37-1.76-16.45-4.94-26.51-4.94-5.61,0-10.38,1.27-15.9,2.74Z"/>
    <path class="cls-1" d="M214.63,162.35c-7.43,1.98-16.66,4.44-30.85,4.47h0s-.09,0-.14,0c-.05,0-.09,0-.14,0h0c-14.18-.03-23.42-2.49-30.85-4.47-5.52-1.47-10.29-2.74-15.9-2.74-10.61,0-22.36,3.54-27.34,5.22v9.65c6.44-1.99,17.15-4.72,27.34-4.72,6.89,0,12.48,1.49,18.41,3.07,7.26,1.93,15.49,4.13,28.48,4.14,12.99-.02,21.21-2.21,28.48-4.14,5.93-1.58,11.52-3.07,18.41-3.07,10.01,0,20.51,2.63,26.99,4.61v-9.66c-5.17-1.72-16.62-5.1-26.99-5.1-5.61,0-10.38,1.27-15.9,2.74Z"/>
    <path class="cls-1" d="M257.52,67.23l-44.92,78.42c-.18,.05-.35,.09-.53,.14-2.74,.73-5.61,1.49-8.82,2.17l51.52-89.94h-8.93l-52.39,91.46c-2.54,.25-5.29,.43-8.3,.48l52.67-91.94h-8.93l-52.56,91.75c-2.74-.17-5.25-.44-7.58-.78l52.11-90.97H109.41v96.54c6.44-1.99,17.15-4.72,27.34-4.72,6.89,0,12.48,1.49,18.41,3.07,7.26,1.93,15.49,4.13,28.48,4.14,12.99-.02,21.21-2.21,28.48-4.14,5.93-1.58,11.52-3.07,18.41-3.07,10.01,0,20.51,2.63,26.99,4.61v-56.76l-25.83,45.09c-.53-.01-1.05-.02-1.58-.02-2.37,0-4.58,.18-6.72,.49l34.12-59.57v-16.46Zm-105.56,37.32l-2.44,11.36-2.57-11.36-11.65-2.51,11.59-2.67,2.57-11.49,2.51,11.65,11.32,2.43-11.32,2.58Z"/>
  </g>
  <path class="cls-1" d="M138.09,235.79c-.04,.11-.11,.22-.16,.3-.03,.03-.03,.08,0,.1,.05,.04,.11-.03,.16-.1,.04-.06,.28-.35,.41-.48,.21-.23,.35-.33,.38-.37,.03-.04,.04-.07,.01-.09-.03-.02-.08,0-.14,.01-.14,.05-.25,0-.45-.13-.11-.07-.22-.15-.34-.25l-.97-.72s-.04-.07,0-.11l1.56-2.07c.05-.06,.08-.07,.13-.03l1.14,.9c.29,.23,.36,.49,.33,.63-.03,.13-.1,.28-.15,.34-.04,.05-.05,.1-.02,.12,.04,.03,.09,0,.12-.03,.09-.08,.35-.4,.42-.47,.18-.19,.29-.26,.33-.31,.03-.03,.04-.08,0-.1-.03-.02-.08-.01-.14-.03-.09-.02-.21-.11-.36-.21-.18-.12-1.71-1.27-1.85-1.4l-.3-.25c-.16-.13-.36-.29-.53-.41-.08-.07-.13-.08-.17-.03-.03,.03,0,.07,.02,.09,.07,.04,.2,.14,.24,.21,.21,.24,.18,.41,0,.67-.17,.25-.32,.46-1.21,1.64l-1,1.32c-.55,.72-.99,1.31-1.28,1.6-.19,.2-.36,.33-.53,.25-.08-.04-.18-.09-.25-.14-.04-.04-.08-.03-.09,0-.03,.04,0,.09,.07,.15,.23,.17,.72,.51,.75,.53,.04,.03,.5,.41,.91,.72,.08,.07,.14,.07,.17,.03,.02-.02,.02-.06-.02-.09-.07-.06-.22-.2-.32-.29-.2-.2-.12-.4,.02-.63,.2-.35,.65-.94,1.2-1.66l.48-.64c.04-.05,.07-.06,.1-.03,.13,.1,.95,.72,1.12,.88,.21,.21,.23,.43,.19,.57Z"/>
  <path class="cls-1" d="M101.95,197.43c1.19-.99,4.44-3.58,4.74-3.82,.24-.2,.28-.25,.26-.3-.02-.05-.08-.08-.41-.09l-6.23-.26c-.5-.02-.9-.09-1.08-.49-.03-.07-.08-.19-.1-.25-.01-.05-.04-.08-.08-.07-.05,.02-.05,.08-.02,.19,.13,.42,.32,.91,.35,1,.03,.1,.13,.5,.2,.71,.03,.08,.06,.13,.12,.11,.03-.01,.04-.04,.02-.11l-.03-.09c-.05-.15-.03-.37,.15-.43,.16-.05,.39-.08,.64-.07l1.76,.03s.08,.02,.1,.07l.62,1.93s0,.07-.03,.1l-1.94,1.54c-.13,.1-.23,.07-.26,.02-.02-.03-.05-.05-.08-.04-.05,.02-.02,.12,.02,.29,.18,.62,.39,1.28,.43,1.42,.03,.1,.07,.17,.13,.15,.04-.01,.04-.06,.02-.11-.03-.09-.06-.23-.06-.38,0-.2,.06-.51,.75-1.09Zm.75-3.84s0-.05,.06-.05h2.67c.15,.02,.16,.06,.04,.15l-2.15,1.63s-.06,.03-.07-.01l-.55-1.72Z"/>
  <path class="cls-1" d="M104.68,127.62c.09-.1,.3-.26,.3-.33,0-.07-.11-.1-.47-.1h-5.4c-.86-.01-1.13-.06-1.2-.29-.05-.14-.06-.31-.06-.39,0-.05-.02-.07-.06-.07-.07,0-.08,.05-.08,.15,0,.42,.03,.82,.03,.9s-.03,.46-.03,1c0,.11,.02,.17,.08,.17,.04,0,.06-.03,.06-.08,0-.08,0-.29,.06-.47,.07-.26,.32-.34,1.09-.37l4.51-.12c-.34,.3-1.53,1.37-2.7,2.46-1.07,1-2.46,2.36-2.55,2.46-.5,.5-.61,.61-.61,.69,0,.07,.05,.08,.67,.08l5.52,.02c.57,0,.77,.04,.84,.35,.03,.11,.03,.18,.03,.22,0,.07,.03,.11,.07,.11,.06,0,.07-.07,.07-.17,0-.39-.03-.7-.03-.8s.03-.56,.03-.98c0-.11-.01-.19-.07-.19-.04,0-.07,.01-.07,.07,0,.08,0,.29-.04,.46-.07,.29-.28,.36-.9,.37l-4.79,.1c.31-.3,1.46-1.33,2.46-2.26,1.56-1.45,3.07-2.85,3.23-2.99Z"/>
  <path class="cls-1" d="M104.87,148.59c.02-.26,.11-.34,.11-.41,0-.04-.12-.07-.18-.09-.07-.02-.89-.21-.98-.21-.06,0-.08,.02-.08,.05,0,.04,.02,.07,.09,.09,.07,.03,.13,.06,.29,.16,.23,.15,.29,.38,.3,.96l.02,1.39h-3.99c-.9,0-1.65,0-2.04-.04-.27-.04-.48-.08-.52-.28-.02-.08-.03-.2-.03-.28,0-.05-.03-.07-.06-.07-.06,0-.08,.05-.08,.15,0,.28,.03,.88,.03,.92s-.03,.64-.03,1.16c0,.1,.03,.15,.08,.15,.03,0,.06-.02,.06-.08,0-.08,.02-.29,.03-.42,.04-.28,.25-.34,.52-.37,.4-.04,1.14-.04,2.04-.04h3.99l-.02,1.19c-.02,.9-.24,1.13-.52,1.16h-.11c-.13,.02-.16,.04-.16,.08,0,.04,.04,.07,.12,.07,.1,0,.75,.03,1.03,.03,.06,0,.11,0,.11-.05,0-.04-.03-.12-.05-.27-.03-.15-.05-.37-.05-.67v-3.54c0-.11,.02-.47,.05-.75Z"/>
  <path class="cls-1" d="M104.78,154.73s-.06,.04-.06,.08c0,.09,0,.25-.03,.32-.06,.31-.22,.39-.54,.4-.3,.02-.57,.02-2.04,.02h-1.66c-.9,0-1.65,0-2.04-.04-.27-.04-.48-.08-.52-.27-.02-.08-.03-.2-.03-.28,0-.06-.03-.08-.06-.08-.06,0-.08,.05-.08,.15,0,.28,.03,.88,.03,.89,0,.04-.03,.64-.03,1.16,0,.1,.03,.15,.08,.15,.03,0,.06-.02,.06-.08,0-.08,.02-.29,.03-.42,.04-.28,.25-.34,.52-.37,.4-.05,1.14-.05,2.04-.05h.23s.08,.02,.08,.06l-.02,1.16c0,.06-.02,.09-.06,.12-.24,.19-.88,.63-1.4,1.03-.71,.53-1.16,.87-1.38,1.27-.13,.25-.18,.48-.18,1.01v.67c0,.17,.02,.22,.08,.22,.03,0,.06-.03,.06-.08,0-.06,0-.19,.03-.37,.04-.23,.14-.64,.68-1.15,.58-.54,1.42-1.19,2.41-1.96,.78,.85,1.48,1.14,2.18,1.14,.65,0,1.11-.42,1.28-.65,.36-.5,.42-1.13,.42-1.72,0-.29-.03-1.01-.03-1.11,0-.05,.03-.64,.03-1.06,0-.1-.02-.15-.08-.15Zm-2.11,3.91c-.72,0-1.23-.24-1.45-.57-.15-.22-.18-.48-.18-.71,0-.42,.07-.85,.15-.99,.03-.04,.06-.06,.11-.06h3.08c.06,0,.09,.03,.11,.07,.03,.1,.06,.35,.06,.63,0,1.01-.71,1.63-1.88,1.63Z"/>
  <path class="cls-1" d="M100.02,190.11c.07-.01,.14-.04,.13-.08,0-.06-.04-.07-.15-.08-.17-.01-.6-.09-.83-.26-.42-.33-.57-.88-.64-1.58-.22-2.01,1.27-3.56,3.06-3.76,.95-.11,1.8-.04,2.54,.58,.35,.29,.78,.84,.92,2.08,.09,.83-.08,1.57-.33,1.93-.18,.27-.55,.46-.91,.5-.13,.01-.2,.03-.19,.09,0,.06,.06,.07,.21,.07,.14,0,.66-.06,.97-.08,.34-.02,.45,0,.53,0,.05,0,.09-.03,.09-.13-.02-.3,.01-.61,.03-.97,.04-.47,0-1-.03-1.37-.16-1.44-.69-2.25-1.31-2.75-.93-.74-2.05-.84-2.67-.77-.89,.09-1.94,.43-2.65,1.43-.58,.81-.83,1.8-.67,3.2,.06,.6,.21,1.3,.4,1.66,.09,.16,.11,.18,.3,.21,.33,.06,1.15,.08,1.22,.08Z"/>
  <path class="cls-1" d="M104.98,99.41c0-.06-.07-.1-.17-.11l-6.15-.68c-.36-.04-.72-.07-.78-.38-.03-.14-.03-.21-.03-.28,0-.05-.02-.09-.05-.09-.06,0-.08,.07-.08,.16,0,.25,.03,.7,.03,.79,0,.08-.03,.53-.03,.88,0,.11,.02,.17,.08,.17,.03,0,.05-.03,.05-.07,0-.06,0-.2,.05-.36,.03-.14,.15-.24,.29-.24,.16,0,.33,0,.48,.01l4.37,.38v.03c-.26,.11-2.52,1.16-2.69,1.25-.09,.05-1.73,.86-2.19,1.1-.34,.18-.43,.23-.43,.29,0,.09,.09,.11,.5,.31l4.9,2.31v.03l-4.86,.45c-.17,.02-.33,.01-.34-.04-.01-.04-.03-.06-.07-.06-.04,0-.07,.04-.09,.27-.03,.35-.06,1.36-.06,1.57,0,0,0,.02,0,.02,0,0,0,0,0,.01,0,.44,.03,.96,.03,1.07s-.03,.51-.03,.73c0,.08,.02,.14,.08,.14,.04,0,.06-.03,.06-.09v-.1c0-.16,.08-.36,.27-.36,.17,0,.39,.05,.63,.13l1.67,.57c.05,.02,.08,.04,.08,.09v2.03s-.02,.07-.06,.09l-2.32,.88c-.15,.06-.24,0-.26-.06-.01-.03-.03-.06-.07-.06-.06,0-.06,.1-.06,.28-.02,.65-.02,1.34-.02,1.48,0,.1,.02,.19,.08,.19,.05,0,.06-.04,.06-.1,0-.09,0-.23,.06-.38,.06-.2,.21-.47,1.05-.81,1.43-.58,5.32-2.06,5.68-2.2,.29-.11,.34-.15,.34-.2s-.06-.1-.37-.21l-5.85-2.14c-.47-.17-.83-.36-.89-.79,0-.06-.01-.14-.01-.21,0-.12,.02-.3,.08-.5,.13-.4,.66-.47,1-.51l5.79-.63c.18-.02,.25-.05,.25-.11s-.07-.1-.15-.14l-5.92-2.77,5.93-2.88c.1-.05,.14-.09,.14-.14Zm-4.14,10.01s.02-.04,.06-.03l2.55,.83c.14,.05,.14,.09,0,.14l-2.55,.9s-.06,.01-.06-.04v-1.8Z"/>
  <path class="cls-1" d="M97.7,124.74c0,.37,0,.44,.24,.51,.2,.04,.84,.12,.92,.12,.06,0,.14,0,.14-.05,0-.05-.04-.07-.14-.09-.39-.07-.58-.18-.68-.42-.11-.25-.11-.66-.11-.91,0-.92,.12-1.07,.77-1.09,.2-.01,1.29,0,1.61,0h.83s.07,.02,.07,.07c0,.16-.02,1.09-.05,1.35-.04,.37-.2,.45-.33,.49-.12,.04-.22,.04-.31,.04-.04,0-.08,.02-.08,.07,0,.07,.1,.07,.18,.07,.06,0,.41,.02,.6,.04,.31,.03,.47,.08,.53,.08s.07-.02,.07-.04c0-.04-.05-.08-.12-.14-.09-.09-.11-.22-.13-.44-.02-.22-.02-1.38-.02-1.5,0-.04,.03-.06,.09-.06h2.61c.07,0,.09,.02,.09,.06,0,.1-.01,1.13-.03,1.29-.06,.51-.17,.6-.32,.67-.11,.04-.27,.06-.34,.06-.08,0-.12,.02-.12,.08,0,.04,.06,.06,.1,.07,.11,.02,.53,.04,.63,.04,.26,.03,.37,.08,.44,.08,.05,0,.08-.01,.08-.04,0-.05-.04-.09-.05-.13-.02-.08-.04-.23-.05-.41,0-.21,0-2.09,0-2.16l.02-.38c.01-.21,.01-.46,.01-.68,0-.11-.02-.15-.08-.15-.04,0-.06,.04-.06,.08,0,.08,0,.25-.03,.32-.06,.31-.22,.38-.54,.41-.3,.02-.57,.02-2.04,.02h-1.66c-.9,0-1.65,0-2.04-.05-.27-.04-.48-.08-.52-.28-.02-.08-.04-.2-.04-.28,0-.06,0-.19,.03-.37,.04-.24,.14-.64,.68-1.15,.58-.54,1.42-1.19,2.41-1.96,.78,.85,1.48,1.14,2.18,1.14,.65,0,1.11-.42,1.28-.66,.36-.5,.42-1.13,.42-1.72,0-.29-.03-1.01-.03-1.11,0-.04,.03-.64,.03-1.06,0-.1-.02-.15-.08-.15-.04,0-.06,.04-.06,.08,0,.09,0,.24-.03,.32-.06,.31-.22,.39-.54,.41-.3,.02-.57,.02-2.04,.02h-1.66c-.9,0-1.65,0-2.04-.05-.27-.04-.48-.09-.52-.27-.02-.08-.03-.2-.03-.28,0-.06-.03-.08-.06-.08-.06,0-.08,.05-.08,.15,0,.28,.03,.88,.03,.89,0,.05-.03,.64-.03,1.16,0,.1,.03,.15,.08,.15,.03,0,.06-.02,.06-.08,0-.08,.02-.29,.03-.42,.04-.28,.25-.34,.52-.37,.4-.05,1.14-.05,2.04-.05h.23s.08,.02,.08,.07l-.02,1.16c0,.06-.02,.08-.06,.12-.24,.19-.88,.63-1.4,1.03-.71,.53-1.16,.87-1.38,1.27-.13,.25-.18,.48-.18,1.01v.67c0,.06,0,.11,.01,.14,0,.02-.01,.04-.01,.07,0,.14,.02,.36,.02,.55,.01,.2,.01,.36,.01,.38,0,.14-.01,.37-.03,.73-.01,.37-.03,.89-.03,1.59Zm3.49-8.73s.06-.07,.11-.07h3.08c.06,0,.09,.03,.11,.08,.03,.1,.06,.35,.06,.63,0,1.01-.71,1.63-1.88,1.63-.72,0-1.23-.24-1.45-.57-.15-.22-.18-.48-.18-.7,0-.42,.07-.85,.15-.99Z"/>
  <path class="cls-1" d="M124.22,219.02c-.12-.21-.29-.43-.55-.69-.85-.85-1.87-.89-2.58-.18-.45,.46-.71,1.03-.58,2.31l.05,.55c.1,1.05,.03,1.5-.43,1.97-.43,.42-1.2,.57-1.84-.07-.44-.45-.7-1.07-.31-1.67,.07-.11,.17-.21,.23-.27,.05-.05,.06-.08,.02-.12-.03-.03-.08-.01-.16,.06-.11,.1-.41,.34-.74,.67-.18,.18-.2,.22-.16,.35,.14,.41,.4,.76,.71,1.08,.36,.36,.8,.64,1.29,.73,.79,.13,1.4-.27,1.67-.54,.53-.53,.76-1.13,.6-2.54l-.04-.34c-.14-1.14-.07-1.55,.31-1.93,.49-.49,1.13-.41,1.59,.05,.61,.61,.51,1.07,.48,1.19-.03,.11-.17,.33-.25,.42-.05,.06-.07,.1-.03,.14,.03,.03,.09,0,.2-.11,.45-.46,.7-.65,.74-.68,.03-.03,.03-.06-.02-.11-.05-.05-.1-.11-.2-.26Z"/>
  <path class="cls-1" d="M247.15,224.64c-.07,.06-.18,.15-.32,.21-.18,.09-.48,.16-1.3-.23-1.39-.68-5.09-2.57-5.44-2.74-.28-.14-.34-.15-.38-.11-.04,.04-.03,.11,.1,.41l2.35,5.77c.19,.47,.29,.86,.01,1.19-.05,.06-.14,.15-.19,.2-.04,.03-.05,.07-.03,.1,.03,.04,.09,.02,.19-.07,.32-.3,.69-.66,.77-.74,.07-.07,.4-.32,.56-.47,.06-.06,.09-.11,.05-.15-.02-.02-.06-.02-.11,.02l-.07,.06c-.12,.11-.32,.18-.45,.04-.11-.12-.23-.33-.32-.56l-.7-1.62s-.02-.09,.02-.12l1.5-1.36s.06-.03,.1-.01l2.2,1.13c.14,.08,.16,.18,.13,.23-.02,.03-.03,.06,0,.09,.04,.04,.11-.03,.25-.14,.5-.42,1.01-.89,1.11-.98,.08-.07,.12-.14,.09-.18-.03-.04-.07-.02-.11,.02Zm-4.09-.32l-1.33,1.21s-.05,.02-.07-.03l-1.09-2.44c-.06-.14-.02-.17,.11-.1l2.37,1.29s.05,.04,.02,.08Z"/>
  <path class="cls-1" d="M111.77,203.87c-.03-.06-.11-.06-.2-.06l-6.53,.28,3.92-5.3c.07-.09,.08-.14,.06-.19-.03-.05-.1-.05-.2-.01l-5.76,2.24c-.34,.13-.68,.28-.87,.02-.09-.11-.12-.17-.16-.23-.02-.04-.06-.08-.08-.06-.06,.03-.04,.1,0,.18,.12,.23,.35,.62,.39,.69,.03,.07,.22,.48,.38,.79,.05,.1,.09,.14,.15,.11,.02-.01,.02-.05,0-.09-.03-.05-.08-.18-.12-.34-.04-.14,.02-.29,.14-.35,.14-.08,.29-.15,.43-.21l4.05-1.69,.02,.04c-.18,.21-1.7,2.19-1.81,2.34-.06,.09-1.13,1.56-1.43,1.99-.22,.32-.28,.4-.25,.46,.04,.07,.13,.06,.59,.04l5.42-.22v.02s-4.09,2.65-4.09,2.65c-.14,.09-.29,.16-.32,.12-.03-.04-.06-.05-.09-.03-.04,.02-.04,.08,.04,.28,.14,.32,.58,1.24,.68,1.42,.05,.1,.12,.16,.17,.14,.03-.02,.03-.05,0-.09-.04-.08-.16-.3-.21-.58-.07-.42,.37-.72,.65-.91l4.84-3.23c.15-.1,.2-.16,.18-.22Z"/>
  <path class="cls-1" d="M260.41,208.08l-4.49-3.22c-.46-.32-.61-.48-.49-.77,.04-.11,.08-.16,.11-.2,.04-.06,.04-.1,.01-.12-.05-.03-.09,.01-.15,.1-.22,.31-.38,.59-.44,.67-.06,.09-.35,.44-.59,.78-.07,.09-.1,.16-.06,.19,.03,.02,.06,.03,.09-.02,.05-.06,.18-.23,.31-.35,.23-.19,.44-.13,.94,.22l3.97,2.7c-.43,.07-1.96,.23-3.32,.41-2.1,.28-4.15,.54-4.37,.56-.13,.03-.39,.04-.44,.09-.04,.07,.02,.15,.32,.36l4.39,3.14c.7,.5,.9,.7,.81,.92-.05,.15-.13,.29-.18,.35-.03,.03-.03,.07,0,.09,.05,.04,.09,0,.15-.08,.25-.34,.45-.69,.5-.76,.05-.07,.29-.36,.6-.8,.06-.09,.08-.15,.03-.18-.03-.02-.06-.01-.09,.03-.05,.07-.18,.24-.32,.36-.21,.16-.46,.09-1.1-.34l-3.75-2.52c.45-.05,2.04-.22,3.63-.43,1.45-.19,3.37-.49,3.5-.52,.7-.12,.85-.15,.89-.21,.04-.05,.01-.09-.49-.46Z"/>
  <path class="cls-1" d="M252.76,218.8s-.13,.14-.28,.25c-.19,.14-.54,.37-1.28,.37-.8,0-1.85-.11-3.1-.23,.02-1.15-.29-1.85-.8-2.33-.48-.44-1.1-.46-1.38-.41-.6,.12-1.08,.54-1.48,.97-.2,.21-.68,.75-.75,.82-.03,.04-.46,.45-.75,.75-.08,.08-.09,.12-.05,.17,.02,.02,.06,.01,.09-.02,.06-.06,.17-.17,.24-.21,.26-.18,.42-.13,.67,.08,.23,.19,.42,.37,1.49,1.38l1.21,1.14c.66,.62,1.2,1.13,1.45,1.44,.17,.22,.29,.39,.19,.56-.05,.08-.11,.17-.17,.23-.04,.04-.04,.07-.01,.09,.04,.04,.09,.02,.16-.06,.19-.2,.58-.65,.59-.66,.03-.04,.46-.45,.82-.83,.07-.08,.08-.13,.05-.16-.02-.02-.05-.02-.09,.02-.06,.06-.22,.2-.32,.28-.22,.18-.41,.08-.63-.09-.32-.23-.86-.75-1.52-1.37l-.17-.16s-.04-.07-.01-.1l.81-.83s.07-.05,.12-.05c.31,.03,1.07,.14,1.73,.21,.88,.09,1.44,.17,1.88,.03,.27-.09,.46-.23,.82-.61l.46-.49c.12-.12,.14-.18,.1-.22-.02-.02-.07-.01-.1,.02Zm-4.98,.39c-.04,.26-.2,.47-.35,.63-.29,.3-.63,.57-.79,.62-.05,.01-.09,0-.12-.03l-2.24-2.12s-.05-.09-.03-.13c.04-.09,.2-.29,.4-.5,.69-.73,1.63-.7,2.49,.11,.52,.49,.72,1.02,.65,1.42Z"/>
  <path class="cls-1" d="M104.62,61.35l-5.85-2.14c-.47-.17-.83-.36-.89-.79-.01-.08-.02-.21-.02-.27,0-.05-.02-.09-.06-.09-.06,0-.08,.06-.08,.18,0,.44,.03,.96,.03,1.07,0,.1-.03,.51-.03,.74,0,.08,.02,.14,.08,.14,.04,0,.06-.03,.06-.1v-.1c0-.16,.08-.36,.27-.36,.17,0,.39,.04,.63,.13l1.67,.57c.05,.02,.08,.05,.08,.09v2.03s-.02,.06-.06,.09l-2.32,.88c-.15,.06-.24,0-.26-.06-.01-.04-.03-.07-.07-.07-.06,0-.06,.1-.06,.28-.02,.65-.02,1.34-.02,1.48,0,.1,.02,.19,.08,.19,.05,0,.06-.04,.06-.09,0-.09,0-.23,.06-.38,.06-.2,.21-.47,1.05-.81,1.43-.57,5.32-2.05,5.68-2.19,.29-.11,.34-.15,.34-.21s-.06-.09-.37-.2Zm-1.16,.12l-2.55,.9s-.06,0-.06-.04v-1.8s.02-.04,.06-.03l2.55,.83c.14,.05,.14,.1,0,.14Z"/>
  <path class="cls-1" d="M114.63,210.99c.4-.29,.6-.75,.64-1.03,.03-.2,.1-.78-.58-1.74-.25-.35-.59-.78-.71-.95-.05-.06-.35-.54-.6-.88-.06-.08-.1-.11-.15-.08-.03,.02-.02,.07,0,.09,.05,.07,.13,.21,.16,.28,.13,.29,.05,.44-.21,.64-.23,.19-.45,.34-1.65,1.19l-1.35,.97c-.74,.52-1.35,.96-1.7,1.15-.24,.12-.44,.21-.58,.08-.07-.06-.15-.14-.2-.21-.03-.05-.06-.05-.09-.03-.05,.03-.03,.08,.03,.17,.16,.23,.53,.69,.55,.72,.03,.04,.35,.54,.65,.96,.06,.09,.11,.11,.15,.08,.03-.02,.04-.05,0-.1-.05-.07-.16-.25-.22-.37-.13-.25,0-.41,.21-.6,.3-.27,.9-.7,1.64-1.22l3.16-2.25c.08-.06,.14-.08,.19-.04,.08,.05,.19,.17,.28,.3,.12,.18,.49,.62,.36,1.32-.12,.7-.62,1.09-.88,1.27-.71,.51-1.67,.31-2.2-.44-.12-.16-.16-.2-.22-.16-.04,.03-.02,.09,0,.12,.02,.04,.08,.13,.11,.17,.78,1.09,2.08,1.37,3.17,.59Z"/>
  <path class="cls-1" d="M101.45,142.24c2.2,0,3.54-1.59,3.54-3.71,0-2.6-2.16-3.71-3.68-3.71-1.69,0-3.69,1.06-3.71,3.62v.07c.02,2.25,1.76,3.73,3.85,3.73Zm-3.49-3.51c0-1.69,1.41-3.02,3.61-3.02,2.07,0,3.1,1.18,3.1,2.75s-1.21,2.87-3.48,2.87c-2.74,0-3.23-1.75-3.23-2.6Z"/>
  <path class="cls-1" d="M268.91,148.43c-.32-.1-1.14-.21-1.21-.21s-.14,.02-.14,.07c0,.05,.03,.08,.14,.1,.17,.03,.59,.15,.79,.34,.39,.38,.47,.93,.47,1.64,0,2.02-1.65,3.41-3.45,3.41-.96,0-1.8-.16-2.46-.85-.32-.33-.69-.92-.69-2.17,0-.83,.25-1.56,.54-1.89,.21-.24,.59-.4,.96-.4,.13,0,.2,0,.2-.07,0-.06-.06-.08-.2-.09-.14-.01-.65-.01-.97-.03-.34-.02-.45-.04-.52-.04-.06,0-.1,.02-.1,.12-.02,.3-.08,.6-.14,.96-.09,.46-.12,.99-.12,1.37,0,1.45,.44,2.31,1.01,2.88,.84,.84,1.95,1.06,2.57,1.06,.9,0,1.97-.22,2.79-1.14,.67-.75,1.02-1.69,1.02-3.11,0-.6-.06-1.32-.21-1.69-.08-.17-.1-.19-.28-.24Z"/>
  <path class="cls-1" d="M265.88,170.11h-1.01c-1.47,0-1.74,0-2.04-.02-.33-.02-.48-.09-.54-.35-.01-.11-.03-.17-.03-.23,0-.04-.01-.08-.05-.08-.06,0-.08,.05-.08,.15,0,.28,.03,.72,.03,.79,0,.06-.03,.58-.03,1,0,.1,.02,.15,.08,.15,.04,0,.05-.03,.05-.07,0-.09,.01-.25,.03-.32,.07-.31,.22-.38,.54-.4,.3-.02,.57-.02,2.04-.02h1.18c.97,0,1.77,.11,2.31,.55,.41,.34,.68,.9,.68,1.48,0,.54-.08,.96-.52,1.43-.39,.41-.97,.71-2.33,.71h-1.32c-1.47,0-1.74,0-2.04-.02-.33-.02-.5-.1-.54-.35-.01-.11-.03-.17-.03-.23,0-.04-.01-.08-.05-.08-.06,0-.08,.05-.08,.15,0,.28,.03,.85,.03,.93s-.03,.66-.03,1.08c0,.11,.02,.15,.08,.15,.04,0,.05-.04,.05-.08,0-.08,.01-.24,.03-.32,.07-.31,.22-.38,.54-.41,.3-.02,.57-.02,2.04-.02h1.38c1.38,0,2.04-.35,2.48-.82,.63-.67,.67-1.62,.67-1.95,0-.55-.09-1.26-.7-1.94-.67-.76-1.8-.87-2.82-.87Z"/>
  <path class="cls-1" d="M265.88,119.28h-1.01c-1.47,0-1.74,0-2.04-.02-.33-.02-.48-.09-.54-.35-.01-.12-.03-.18-.03-.24,0-.04-.01-.08-.05-.08-.06,0-.08,.05-.08,.15,0,.28,.03,.73,.03,.79,0,.06-.03,.58-.03,1,0,.1,.02,.15,.08,.15,.04,0,.05-.04,.05-.08,0-.08,.01-.25,.03-.32,.07-.31,.22-.39,.54-.41,.3-.02,.57-.02,2.04-.02h1.18c.97,0,1.77,.11,2.31,.55,.41,.34,.68,.9,.68,1.48,0,.54-.08,.96-.52,1.43-.39,.4-.97,.7-2.33,.7h-1.32c-1.47,0-1.74,0-2.04-.02-.33-.02-.5-.09-.54-.35-.01-.11-.03-.17-.03-.24,0-.03-.01-.07-.05-.07-.06,0-.08,.05-.08,.15,0,.28,.03,.85,.03,.93s-.03,.66-.03,1.08c0,.1,.02,.15,.08,.15,.04,0,.05-.03,.05-.07,0-.09,.01-.25,.03-.32,.07-.31,.22-.39,.54-.4,.3-.02,.57-.02,2.04-.02h1.38c1.38,0,2.04-.36,2.48-.82,.63-.67,.67-1.62,.67-1.94,0-.56-.09-1.26-.7-1.94-.67-.75-1.8-.87-2.82-.87Z"/>
  <path class="cls-1" d="M269.19,175.66s-.06,.04-.06,.09c0,.05,0,.19-.03,.37-.04,.24-.14,.64-.68,1.15-.59,.55-1.43,1.19-2.41,1.96-.79-.85-1.48-1.14-2.18-1.14-.65,0-1.11,.41-1.28,.65-.36,.5-.41,1.13-.41,1.72,0,.29,.03,1.01,.03,1.11,0,.05-.03,.64-.03,1.06,0,.11,.02,.15,.08,.15,.04,0,.05-.04,.05-.07,0-.09,.01-.25,.03-.32,.07-.31,.22-.39,.54-.41,.3-.02,.57-.02,2.04-.02h1.66c.9,0,1.65,0,2.04,.04,.28,.04,.48,.09,.52,.28,.02,.09,.04,.2,.04,.28,0,.06,.03,.08,.06,.08,.06,0,.07-.05,.07-.16,0-.28-.03-.87-.03-.88,0-.05,.03-.64,.03-1.16,0-.1-.03-.15-.07-.15-.03,0-.06,.02-.06,.07,0,.09-.02,.29-.04,.42-.04,.28-.25,.34-.52,.37-.39,.05-1.14,.05-2.04,.05h-.23s-.08-.02-.08-.07l.02-1.16c0-.06,.02-.08,.06-.12,.25-.19,.88-.63,1.39-1.03,.71-.54,1.17-.87,1.39-1.27,.13-.25,.18-.48,.18-1.01v-.67c0-.17-.02-.23-.07-.23Zm-3.38,5.49s-.07,.07-.12,.07h-3.09c-.05,0-.09-.03-.11-.08-.03-.09-.06-.35-.06-.63,0-1.01,.7-1.63,1.88-1.63,.72,0,1.23,.24,1.45,.58,.15,.21,.18,.48,.18,.71,0,.41-.07,.85-.15,.99Z"/>
  <path class="cls-1" d="M268.91,82.18c-.32-.09-1.14-.21-1.21-.21-.07,0-.14,.02-.14,.07,0,.05,.03,.08,.14,.1,.17,.03,.59,.15,.79,.35,.39,.38,.47,.93,.47,1.64,0,2.02-1.65,3.4-3.45,3.4-.96,0-1.8-.16-2.46-.85-.32-.33-.69-.92-.69-2.17,0-.83,.25-1.56,.54-1.88,.21-.25,.59-.4,.96-.4,.13,0,.2-.01,.2-.08,0-.06-.06-.08-.2-.09-.14,0-.65,0-.97-.03-.34-.02-.45-.05-.52-.05-.06,0-.1,.02-.1,.12-.02,.3-.08,.6-.14,.96-.09,.46-.12,.99-.12,1.37,0,1.45,.44,2.31,1.01,2.87,.84,.84,1.95,1.06,2.57,1.06,.9,0,1.97-.22,2.79-1.14,.67-.74,1.02-1.69,1.02-3.11,0-.6-.06-1.32-.21-1.69-.08-.17-.1-.19-.28-.25Z"/>
  <path class="cls-1" d="M267.44,113.88c-.75,0-1.34,.27-2.21,1.38l-.21,.27c-.7,.9-1.05,1.15-1.59,1.15-.68,0-1.09-.51-1.09-1.16,0-.86,.39-1.12,.5-1.18,.11-.06,.36-.11,.47-.12,.07,0,.12-.02,.12-.08,0-.04-.06-.07-.21-.07-.64,0-.95-.04-1-.04s-.06,.02-.06,.09c0,.08-.01,.15-.05,.33-.06,.23-.1,.51-.1,.88,0,1.2,.69,1.95,1.7,1.95,.64,0,1.23-.22,2.05-1.22l.35-.42c.67-.81,1.05-1.08,1.7-1.08,.6,0,1.26,.45,1.26,1.35,0,.63-.27,1.26-.97,1.4-.13,.03-.26,.03-.35,.03-.08,0-.11,0-.11,.06,0,.05,.05,.07,.15,.08,.15,0,.53,.04,1,.04,.26,0,.3-.01,.36-.14,.19-.39,.26-.82,.26-1.26,0-.51-.11-1.02-.4-1.43-.46-.65-1.18-.8-1.56-.8Z"/>
  <path class="cls-1" d="M98.94,176.78l5.79-.64c.18-.02,.25-.04,.25-.11s-.07-.11-.15-.14l-5.92-2.77,5.93-2.88c.1-.04,.14-.08,.14-.14s-.07-.09-.17-.1l-6.15-.68c-.36-.04-.72-.07-.78-.38-.03-.14-.03-.21-.03-.28,0-.04-.02-.09-.05-.09-.06,0-.08,.07-.08,.16,0,.26,.03,.71,.03,.79,0,.08-.03,.53-.03,.88,0,.11,.02,.17,.08,.17,.03,0,.05-.04,.05-.08,0-.06,0-.2,.05-.36,.03-.14,.15-.24,.29-.24,.16,0,.33,0,.48,0l4.37,.38v.04c-.26,.1-2.52,1.16-2.69,1.24-.09,.05-1.73,.86-2.19,1.1-.34,.18-.43,.22-.43,.29,0,.08,.09,.11,.5,.31l4.9,2.3v.03l-4.86,.46c-.17,.02-.33,0-.34-.04-.01-.04-.03-.07-.07-.07-.04,0-.07,.05-.09,.27-.03,.35-.06,1.37-.06,1.57,0,.11,.03,.2,.08,.2,.04,0,.05-.03,.05-.08,0-.09,0-.34,.08-.61,.13-.41,.66-.47,1-.51Z"/>
  <path class="cls-1" d="M101.3,85.07c-1.69,0-3.69,1.06-3.7,3.62v.07c.02,2.25,1.76,3.73,3.85,3.73s3.54-1.59,3.54-3.7c0-2.6-2.16-3.71-3.68-3.71Zm-.11,6.51c-2.74,0-3.23-1.76-3.23-2.6,0-1.69,1.41-3.02,3.61-3.02,2.07,0,3.1,1.18,3.1,2.75,0,1.49-1.21,2.87-3.48,2.87Z"/>
  <path class="cls-1" d="M104.88,83.63c-.02-.08-.04-.23-.05-.41,0-.21,0-2.09,0-2.16l.02-.38c.01-.21,.01-.46,.01-.68,0-.1-.02-.15-.08-.15-.04,0-.06,.03-.06,.08,0,.08,0,.24-.03,.32-.06,.31-.22,.39-.54,.41-.3,.02-.57,.02-2.04,.02h-1.66c-.9,0-1.65,0-2.04-.05-.27-.04-.48-.08-.52-.27-.02-.09-.04-.2-.04-.28,0-.06,0-.19,.03-.37,.04-.23,.14-.64,.68-1.15,.58-.54,1.42-1.19,2.41-1.96,.78,.85,1.48,1.14,2.18,1.14,.65,0,1.11-.41,1.28-.65,.36-.5,.42-1.13,.42-1.72,0-.29-.03-1.01-.03-1.11,0-.04,.03-.64,.03-1.06,0-.1-.02-.15-.08-.15-.04,0-.06,.04-.06,.08,0,.09,0,.24-.03,.32-.06,.31-.22,.39-.54,.4-.3,.02-.57,.02-2.04,.02h-1.66c-.9,0-1.65,0-2.04-.05-.27-.04-.48-.08-.52-.27-.02-.08-.03-.2-.03-.28,0-.06-.03-.08-.06-.08-.06,0-.08,.05-.08,.15,0,.28,.03,.88,.03,.89,0,.04-.03,.64-.03,1.16,0,.1,.03,.15,.08,.15,.03,0,.06-.02,.06-.08,0-.08,.02-.29,.03-.42,.04-.28,.25-.34,.52-.37,.4-.04,1.14-.04,2.04-.04h.23s.08,.02,.08,.06l-.02,1.16c0,.06-.02,.08-.06,.12-.24,.19-.88,.63-1.4,1.03-.71,.53-1.16,.87-1.38,1.27-.13,.25-.18,.48-.18,1.01v.67c0,.06,0,.11,.01,.14,0,.02-.01,.04-.01,.07,0,.14,.02,.36,.02,.55,.01,.2,.01,.36,.01,.38,0,.14-.01,.37-.03,.73-.01,.37-.03,.89-.03,1.59,0,.37,0,.44,.24,.51,.2,.04,.84,.12,.92,.12,.06,0,.14,0,.14-.06,0-.05-.04-.07-.14-.08-.39-.07-.58-.18-.68-.42-.11-.25-.11-.66-.11-.91,0-.92,.12-1.07,.77-1.09,.2-.01,1.29,0,1.61,0h.83s.07,.02,.07,.07c0,.16-.02,1.09-.05,1.35-.04,.37-.2,.45-.33,.49-.12,.04-.22,.04-.31,.04-.04,0-.08,.02-.08,.07,0,.07,.1,.07,.18,.07,.06,0,.41,.02,.6,.04,.31,.03,.47,.07,.53,.07s.07-.02,.07-.05c0-.04-.05-.08-.12-.14-.09-.09-.11-.22-.13-.44-.02-.22-.02-1.38-.02-1.5,0-.05,.03-.06,.09-.06h2.61c.07,0,.09,.02,.09,.06,0,.1,0,1.13-.03,1.29-.06,.51-.17,.6-.32,.67-.11,.05-.27,.06-.34,.06-.08,0-.12,.02-.12,.08,0,.04,.06,.06,.1,.07,.11,.02,.53,.04,.63,.05,.26,.03,.37,.08,.44,.08,.05,0,.08-.01,.08-.04,0-.05-.04-.09-.05-.13Zm-3.69-8.97s.06-.06,.11-.06h3.08c.06,0,.09,.03,.11,.07,.03,.1,.06,.35,.06,.63,0,1.01-.71,1.63-1.88,1.63-.72,0-1.23-.24-1.45-.57-.15-.22-.18-.49-.18-.71,0-.41,.07-.85,.15-.99Z"/>
  <path class="cls-1" d="M262.43,197.69c-1.95-1.01-3.86-.23-4.84,1.65-1.21,2.31,.19,4.29,1.55,5,1.51,.78,3.78,.76,4.97-1.53,1.05-2.01,.19-4.14-1.68-5.11Zm1.48,4.73c-.79,1.5-2.65,2.02-4.59,1-1.84-.96-2.21-2.48-1.48-3.87,.69-1.32,2.4-1.98,4.41-.94,2.43,1.27,2.06,3.05,1.67,3.81Z"/>
  <path class="cls-1" d="M101.11,71.33h1.01c1.47,0,1.73,0,2.04,.02,.33,.02,.48,.1,.54,.35,.02,.11,.03,.17,.03,.23,0,.04,.02,.08,.06,.08,.06,0,.08-.05,.08-.15,0-.28-.03-.72-.03-.79,0-.06,.03-.57,.03-1,0-.11-.02-.15-.08-.15-.04,0-.06,.04-.06,.07,0,.09,0,.25-.03,.32-.06,.31-.22,.39-.54,.41-.3,.02-.57,.02-2.04,.02h-1.18c-.97,0-1.77-.11-2.31-.55-.41-.34-.68-.91-.68-1.48,0-.54,.08-.96,.52-1.43,.39-.4,.97-.71,2.33-.71h1.32c1.47,0,1.73,0,2.04,.02,.33,.02,.5,.09,.54,.35,.02,.11,.03,.17,.03,.23,0,.04,.02,.08,.06,.08,.06,0,.08-.05,.08-.15,0-.28-.03-.85-.03-.93s.03-.66,.03-1.08c0-.11-.02-.15-.08-.15-.04,0-.06,.04-.06,.07,0,.09,0,.25-.03,.32-.06,.31-.22,.39-.54,.4-.3,.02-.57,.02-2.04,.02h-1.38c-1.37,0-2.03,.36-2.47,.82-.59,.62-.66,1.47-.67,1.85v.16c0,.54,.12,1.22,.7,1.87,.67,.76,1.8,.87,2.82,.87Z"/>
  <path class="cls-1" d="M99.55,147.11c.76,0,1.34-.26,2.22-1.37l.21-.27c.71-.9,1.05-1.15,1.58-1.15,.69,0,1.1,.51,1.1,1.16,0,.87-.4,1.13-.5,1.18-.1,.06-.36,.11-.47,.12-.08,.01-.12,.02-.12,.08,0,.05,.07,.07,.22,.07,.64,0,.95,.04,1,.04,.05,0,.07-.02,.07-.1,0-.07,.01-.15,.05-.33,.06-.23,.09-.51,.09-.88,0-1.2-.69-1.95-1.7-1.95-.64,0-1.23,.23-2.05,1.22l-.35,.42c-.67,.81-1.05,1.09-1.7,1.09-.6,0-1.25-.44-1.25-1.35,0-.63,.27-1.25,.96-1.39,.13-.03,.27-.03,.35-.03,.07,0,.1-.01,.1-.07,0-.04-.04-.07-.15-.07-.15-.01-.53-.05-1-.05-.26,0-.29,.01-.36,.14-.18,.38-.25,.79-.25,1.22v.07c0,.5,.12,1,.4,1.39,.46,.65,1.18,.8,1.56,.8Z"/>
  <path class="cls-1" d="M101.11,167.4h1.01c1.47,0,1.73,0,2.04,.02,.33,.02,.48,.1,.54,.35,.02,.11,.03,.17,.03,.24,0,.03,.02,.08,.06,.08,.06,0,.08-.05,.08-.15,0-.28-.03-.72-.03-.79,0-.05,.03-.57,.03-1,0-.1-.02-.15-.08-.15-.04,0-.06,.04-.06,.08,0,.08,0,.25-.03,.32-.06,.31-.22,.39-.54,.41-.3,.02-.57,.02-2.04,.02h-1.18c-.97,0-1.77-.11-2.31-.55-.41-.34-.68-.9-.68-1.48,0-.53,.08-.96,.52-1.42,.39-.4,.97-.7,2.33-.7h1.32c1.47,0,1.73,0,2.04,.02,.33,.02,.5,.09,.54,.35,.02,.11,.03,.17,.03,.24,0,.04,.02,.07,.06,.07,.06,0,.08-.05,.08-.15,0-.28-.03-.85-.03-.93s.03-.66,.03-1.08c0-.11-.02-.15-.08-.15-.04,0-.06,.04-.06,.07,0,.09,0,.25-.03,.32-.06,.31-.22,.39-.54,.41-.3,.02-.57,.02-2.04,.02h-1.38c-1.37,0-2.03,.36-2.47,.82-.59,.62-.66,1.47-.67,1.85v.16c0,.54,.12,1.22,.7,1.87,.67,.75,1.8,.87,2.82,.87Z"/>
  <path class="cls-1" d="M262.06,93.06s.04,.07,.06,.13c.03,.08,.03,.23,.04,.41,.01,.22,.02,2.13,.01,2.32l-.02,.39c0,.21,0,.46,0,.68,0,.1,.01,.15,.07,.15,.04,0,.06-.04,.06-.08-.01-.08,0-.25,.01-.32,.07-.31,.22-.39,.54-.41,.3-.02,.57-.02,2.04-.02h1.66c.9,0,1.65,0,2.04,.04,.28,.04,.48,.09,.52,.28,.02,.09,.04,.2,.04,.28,0,.06,.03,.08,.06,.08,.06,0,.07-.05,.07-.15,0-.28-.03-.88-.03-.92,0-.05,.03-.64,.03-1.16,0-.1-.03-.15-.07-.15-.03,0-.06,.02-.06,.08,0,.09-.02,.29-.04,.42-.04,.28-.25,.34-.52,.37-.39,.05-1.14,.05-2.04,.05h-.8c-.07,0-.08-.02-.08-.07,0-.16,0-1.19,.03-1.42,.03-.29,.2-.44,.34-.49,.11-.03,.24-.05,.34-.06,.05,0,.09-.02,.09-.07,0-.07-.1-.07-.18-.07-.07,0-.44-.02-.63-.04-.31-.03-.47-.08-.53-.08-.04,0-.07,.01-.07,.05,0,.04,.04,.07,.09,.11,.12,.09,.15,.21,.17,.43,.01,.13,.01,.26,.01,.42v1.2c.01,.06-.02,.07-.08,.07h-2.59c-.08,0-.11-.03-.11-.09l.03-1.45c.01-.37,.18-.59,.3-.64,.12-.06,.28-.09,.36-.09,.06,0,.11-.02,.11-.06,0-.05-.06-.07-.1-.08-.12-.02-.53-.03-.63-.04-.27-.03-.38-.07-.44-.07-.05,0-.09,.02-.09,.05Z"/>
  <path class="cls-1" d="M265.95,192.63c-.72-.23-1.35-.16-2.53,.64l-.28,.19c-.95,.65-1.35,.78-1.86,.61-.66-.21-.88-.82-.69-1.44,.27-.82,.72-.95,.83-.97,.12-.02,.38,0,.49,.03,.08,.01,.12,.02,.14-.03,.01-.05-.04-.08-.19-.13-.61-.2-.9-.32-.94-.34-.04-.02-.07,0-.09,.07-.03,.08-.06,.14-.14,.3-.13,.21-.25,.46-.36,.81-.37,1.14,.06,2.07,1.02,2.37,.61,.2,1.24,.16,2.32-.55l.46-.3c.89-.57,1.33-.71,1.95-.52,.58,.19,1.06,.8,.79,1.67-.19,.6-.63,1.11-1.34,1.04-.14-.01-.26-.06-.34-.08-.07-.02-.1-.02-.12,.03-.01,.05,.03,.08,.12,.12,.14,.06,.48,.21,.93,.35,.25,.08,.28,.08,.39-.03,.3-.31,.49-.7,.63-1.12,.15-.48,.2-1,.06-1.48-.24-.76-.88-1.12-1.25-1.24Z"/>
  <path class="cls-1" d="M262.21,130.89s.05-.03,.05-.08c0-.08,.01-.24,.03-.32,.07-.31,.22-.38,.54-.4,.3-.02,.57-.02,2.04-.02h1.66c.9,0,1.65,0,2.04,.05,.28,.03,.48,.08,.52,.27,.02,.08,.04,.2,.04,.28,0,.06,.03,.08,.06,.08,.06,0,.07-.05,.07-.15,0-.28-.03-.88-.03-.9,0-.05,.03-.65,.03-1.16,0-.11-.03-.15-.07-.15-.03,0-.06,.02-.06,.07,0,.09-.02,.29-.04,.42-.04,.28-.25,.34-.52,.37-.39,.05-1.14,.05-2.04,.05h-3.87c-.09,0-.16-.02-.18-.08-.04-.09-.06-.25-.06-.4,0-.22-.04-.8,.47-1.29,.51-.5,1.15-.52,1.46-.52,.87,0,1.54,.71,1.54,1.63,0,.2,.01,.25,.09,.25,.04,0,.06-.06,.06-.1,0-.05,0-.15,0-.2,0-1.34-.9-2.32-2.24-2.32-.5,0-.92,.26-1.12,.47-.14,.15-.54,.58-.54,1.75,0,.44,.03,.98,.03,1.19,0,.08-.03,.64-.03,1.07,0,.1,.02,.15,.08,.15Z"/>
  <path class="cls-1" d="M262.38,144.88l5.85,2.14c.47,.17,.83,.36,.88,.79,.01,.08,.02,.21,.02,.28,0,.04,.02,.08,.06,.08,.06,0,.07-.06,.07-.18,0-.44-.03-.96-.03-1.06s.03-.51,.03-.74c0-.09-.02-.14-.07-.14-.04,0-.06,.03-.06,.1v.09c0,.16-.08,.36-.28,.36-.17,0-.39-.05-.63-.13l-1.67-.57s-.08-.05-.08-.1v-2.02s.02-.07,.06-.08l2.32-.88c.15-.06,.24,0,.26,.06,.01,.04,.03,.07,.07,.07,.05,0,.05-.1,.06-.28,.02-.65,.02-1.34,.02-1.48,0-.1-.02-.19-.07-.19-.05,0-.06,.04-.06,.09,0,.09-.01,.23-.05,.38-.06,.2-.21,.47-1.05,.81-1.43,.57-5.33,2.05-5.68,2.19-.29,.11-.34,.15-.34,.21,0,.05,.06,.09,.37,.21Zm1.16-.12l2.54-.89s.07-.01,.07,.03v1.81s-.02,.04-.07,.03l-2.54-.83c-.14-.05-.14-.1,0-.14Z"/>
  <path class="cls-1" d="M262.01,139.35c0,.06,.07,.1,.17,.1l6.14,.68c.36,.03,.73,.06,.79,.37,.03,.14,.03,.21,.03,.28,0,.05,.02,.1,.05,.1,.06,0,.08-.07,.08-.16,0-.26-.03-.71-.03-.79,0-.08,.03-.53,.03-.88,0-.11-.02-.17-.08-.17-.03,0-.05,.04-.05,.08,0,.06-.01,.2-.05,.36-.03,.14-.15,.24-.29,.24-.17,0-.33,0-.48,0l-4.37-.38v-.04c.25-.1,2.52-1.16,2.68-1.24,.09-.05,1.72-.86,2.19-1.1,.34-.18,.43-.22,.43-.29,0-.08-.09-.11-.5-.31l-4.9-2.31v-.03l4.86-.45c.17-.02,.33-.01,.34,.03,0,.05,.03,.07,.06,.07,.05,0,.08-.05,.1-.27,.03-.34,.05-1.37,.05-1.57,0-.11-.03-.2-.08-.2-.04,0-.05,.03-.05,.07,0,.1,0,.34-.08,.62-.14,.4-.66,.47-1,.51l-5.79,.63c-.18,.02-.26,.05-.26,.11,0,.07,.07,.11,.15,.14l5.92,2.77-5.93,2.88c-.11,.05-.14,.09-.14,.14Z"/>
  <path class="cls-1" d="M129.06,229.1s-.04,.08,0,.11c.05,.04,.12-.03,.17-.09,.05-.05,.29-.3,.42-.43,.23-.21,.37-.31,.4-.35,.04-.04,.04-.07,.02-.09-.03-.02-.09-.01-.19,0-.12,.02-.24-.06-.42-.19-.18-.13-1.05-.89-1.14-.97-.04-.03-.02-.06,.02-.11l1.71-1.97s.07-.06,.11-.03c.08,.07,.85,.75,.95,.87,.35,.38,.34,.52,.3,.68-.04,.11-.14,.24-.18,.29-.05,.06-.07,.1-.02,.14,.03,.02,.08,0,.12-.03,.09-.07,.38-.37,.45-.44,.2-.18,.3-.23,.35-.29,.03-.04,.05-.07,.03-.09-.04-.03-.09-.03-.13-.06-.07-.03-.19-.11-.34-.23-.17-.13-1.59-1.36-1.64-1.41l-.28-.27c-.15-.15-.34-.31-.51-.46-.08-.07-.13-.08-.17-.04-.02,.03,0,.07,.02,.09,.06,.06,.18,.17,.22,.23,.19,.26,.15,.42-.05,.67-.18,.24-.36,.44-1.32,1.55l-1.09,1.25c-.59,.69-1.08,1.25-1.37,1.51-.21,.18-.38,.31-.55,.21-.08-.05-.18-.1-.24-.16-.04-.04-.07-.03-.09,0-.04,.04-.01,.09,.06,.15,.11,.09,.28,.22,.42,.34,.16,.12,.28,.23,.29,.24,.1,.09,.27,.25,.53,.5,.27,.25,.65,.6,1.19,1.07,.28,.24,.33,.29,.55,.15,.16-.12,.64-.55,.69-.61,.05-.05,.1-.11,.05-.14-.04-.03-.07-.01-.16,.05-.3,.25-.51,.32-.76,.24-.25-.08-.57-.35-.75-.51-.7-.61-.72-.79-.32-1.3,.12-.15,.85-.98,1.06-1.22l.54-.63s.06-.04,.1,0c.12,.11,.81,.73,.98,.92,.25,.27,.21,.44,.16,.57-.05,.12-.12,.19-.18,.26Z"/>
  <path class="cls-1" d="M262.01,167.42c0,.05,.07,.1,.17,.1l6.14,.68c.36,.04,.73,.07,.79,.38,.03,.14,.03,.21,.03,.28,0,.05,.02,.1,.05,.1,.06,0,.08-.07,.08-.16,0-.25-.03-.7-.03-.79,0-.08,.03-.53,.03-.88,0-.11-.02-.17-.08-.17-.03,0-.05,.04-.05,.08,0,.06-.01,.2-.05,.36-.03,.14-.15,.24-.29,.24-.17,0-.33,0-.48,0l-4.37-.38v-.04c.25-.1,2.52-1.16,2.68-1.25,.09-.05,1.72-.86,2.19-1.1,.34-.18,.43-.23,.43-.29,0-.09-.09-.11-.5-.31l-4.9-2.31v-.03l4.86-.45c.17-.02,.33-.01,.34,.03,0,.05,.03,.07,.06,.07,.05,0,.08-.04,.1-.26,.03-.35,.05-1.37,.05-1.57,0-.11-.03-.2-.08-.2-.04,0-.05,.03-.05,.07,0,.1,0,.34-.08,.61-.14,.4-.66,.47-1,.51l-5.79,.63c-.18,.02-.26,.05-.26,.11s.07,.1,.15,.14l5.92,2.77-5.93,2.88c-.11,.05-.14,.09-.14,.14Z"/>
  <path class="cls-1" d="M118.68,217.32c1.1-.98,1.3-1.15,1.53-1.34,.26-.2,.42-.25,.63-.1,.09,.08,.13,.11,.18,.16,.03,.03,.07,.05,.09,.02,.04-.04,.02-.09-.04-.17-.19-.21-.5-.52-.55-.57-.04-.05-.36-.45-.64-.77-.07-.08-.11-.1-.16-.06-.03,.02-.02,.07,0,.1,.06,.06,.15,.19,.19,.25,.16,.28,.09,.43-.13,.66-.21,.21-.41,.39-1.51,1.37l-.88,.78c-.72,.65-1.4,1.1-2.09,1.13-.53,.02-1.11-.22-1.49-.65-.36-.4-.58-.78-.56-1.41,.02-.56,.26-1.17,1.27-2.07l.99-.88c1.1-.98,1.3-1.15,1.53-1.34,.26-.21,.44-.26,.63-.1,.09,.07,.13,.11,.18,.15,.02,.03,.06,.05,.09,.02,.04-.04,.02-.08-.05-.16-.19-.21-.58-.61-.64-.68-.06-.07-.42-.51-.7-.83-.07-.08-.12-.1-.16-.06-.03,.02-.02,.06,0,.09,.06,.07,.16,.19,.19,.26,.16,.28,.09,.43-.13,.66-.21,.21-.41,.39-1.51,1.37l-1.03,.91c-1.03,.91-1.29,1.62-1.31,2.26-.03,.92,.58,1.66,.79,1.89,.37,.42,.91,.88,1.81,.99,1,.12,1.92-.55,2.68-1.22l.76-.67Z"/>
  <path class="cls-1" d="M262.12,98.48c.03,.08,.03,.23,.04,.42,.01,.21,.02,2.13,.01,2.31l-.02,.39c0,.2,0,.46,0,.68,0,.1,.01,.15,.07,.15,.04,0,.06-.04,.06-.08-.01-.08,0-.25,.01-.32,.07-.31,.22-.39,.54-.4,.3-.02,.57-.02,2.04-.02h1.66c.9,0,1.65,0,2.04,.05,.28,.04,.48,.09,.52,.27,.02,.09,.04,.2,.04,.28,0,.06,.03,.08,.06,.08,.06,0,.07-.05,.07-.15,0-.28-.03-.88-.03-.93,0-.04,.03-.64,.03-1.16,0-.1-.03-.15-.07-.15-.03,0-.06,.02-.06,.08,0,.09-.02,.29-.04,.42-.04,.28-.25,.34-.52,.37-.39,.05-1.14,.05-2.04,.05h-.8c-.07,0-.08-.02-.08-.07,0-.16,0-1.19,.03-1.42,.03-.29,.2-.44,.34-.49,.11-.04,.24-.05,.34-.06,.05,0,.09-.02,.09-.07,0-.07-.1-.07-.18-.07-.07,0-.44-.02-.63-.03-.31-.03-.47-.08-.53-.08-.04,0-.07,.01-.07,.05s.04,.07,.09,.1c.12,.09,.15,.21,.17,.43,.01,.13,.01,.27,.01,.42v1.21c.01,.06-.02,.07-.08,.07h-2.59c-.08,0-.11-.03-.11-.09l.03-1.45c.01-.37,.18-.58,.3-.64,.12-.06,.28-.09,.36-.09,.06,0,.11-.02,.11-.07s-.06-.07-.1-.08c-.12-.02-.53-.04-.63-.05-.27-.03-.38-.08-.44-.08-.05,0-.09,.02-.09,.06s.04,.07,.06,.13Z"/>
  <path class="cls-1" d="M262.48,70.96h5.4c.86,.01,1.13,.06,1.2,.29,.04,.14,.05,.31,.05,.38,0,.05,.02,.08,.06,.08,.06,0,.07-.06,.07-.15,0-.42-.03-.82-.03-.9s.03-.46,.03-1c0-.11-.02-.17-.07-.17-.04,0-.06,.03-.06,.07,0,.09-.01,.29-.05,.48-.08,.25-.32,.35-1.1,.37l-4.51,.12c.34-.3,1.53-1.37,2.7-2.46,1.07-1,2.46-2.36,2.55-2.46,.5-.5,.61-.61,.61-.69s-.05-.09-.67-.09l-5.52-.02c-.57,0-.77-.04-.84-.35-.03-.11-.03-.18-.03-.23,0-.07-.03-.1-.06-.1-.05,0-.07,.07-.07,.17,0,.38,.03,.69,.03,.8s-.03,.56-.03,.98c0,.11,.01,.19,.07,.19,.03,0,.06-.01,.06-.08,0-.08,.01-.29,.05-.46,.07-.29,.28-.36,.89-.37l4.79-.1c-.31,.3-1.46,1.33-2.46,2.26-1.55,1.45-3.07,2.86-3.23,3-.1,.09-.3,.25-.3,.33s.1,.1,.47,.1Z"/>
  <path class="cls-1" d="M269.29,73.4c0-.37,0-.44-.24-.51-.2-.05-.84-.12-.92-.12-.06,0-.14,0-.14,.06,0,.05,.03,.07,.14,.09,.39,.07,.57,.18,.68,.42,.1,.25,.1,.66,.1,.91,0,.92-.12,1.06-.77,1.09-.2,.01-1.29,0-1.61,0h-.83s-.07-.02-.07-.07c0-.16,.02-1.09,.05-1.35,.04-.37,.2-.45,.33-.49,.12-.04,.21-.04,.31-.04,.05,0,.08-.02,.08-.07,0-.07-.1-.07-.18-.07-.07,0-.42-.02-.6-.04-.31-.03-.47-.07-.53-.07-.05,0-.07,.02-.07,.04,0,.04,.04,.08,.12,.14,.1,.09,.11,.22,.13,.45,.02,.21,.02,1.38,.02,1.5,0,.05-.03,.06-.1,.06h-2.6c-.07,0-.09-.02-.09-.06,0-.1,.01-1.13,.03-1.29,.06-.51,.17-.6,.32-.67,.11-.05,.28-.06,.34-.06,.07,0,.12-.02,.12-.07,0-.04-.06-.06-.1-.07-.11-.02-.52-.04-.62-.05-.27-.03-.38-.08-.44-.08-.05,0-.09,.01-.09,.04,0,.05,.04,.08,.05,.13,.02,.08,.04,.23,.05,.41,0,.22,0,2.09,0,2.16v.39c-.03,.2-.03,.46-.03,.68,0,.1,.02,.15,.08,.15,.04,0,.05-.03,.05-.07,0-.09,.01-.24,.03-.32,.07-.31,.22-.39,.54-.4,.3-.02,.57-.02,2.04-.02h1.66c.9,0,1.65,0,2.04,.05,.27,.03,.48,.09,.52,.27,.02,.09,.04,.2,.04,.28,0,.06,.03,.08,.06,.08,.06,0,.07-.05,.07-.15,0-.14-.02-.36-.02-.55-.01-.2-.01-.36-.01-.38,0-.14,.01-.37,.03-.73,.01-.37,.03-.89,.03-1.59Z"/>
  <path class="cls-1" d="M263.7,62.54c.64,0,1.23-.23,2.05-1.23l.35-.42c.67-.81,1.05-1.08,1.7-1.08,.6,0,1.26,.45,1.26,1.35,0,.63-.27,1.26-.97,1.4-.13,.03-.26,.03-.35,.03-.08,0-.11,.01-.11,.07,0,.05,.05,.07,.15,.08,.15,.01,.53,.05,1,.05,.26,0,.3,0,.36-.14,.19-.38,.26-.82,.26-1.26,0-.51-.11-1.02-.4-1.43-.46-.65-1.18-.8-1.56-.8-.75,0-1.34,.27-2.21,1.38l-.21,.26c-.7,.9-1.05,1.15-1.59,1.15-.68,0-1.09-.51-1.09-1.16,0-.87,.39-1.12,.5-1.18,.11-.06,.36-.11,.47-.12,.07,0,.12-.02,.12-.08,0-.04-.06-.07-.21-.07-.64,0-.95-.04-1-.04s-.06,.02-.06,.09c0,.08-.01,.15-.05,.33-.06,.23-.1,.51-.1,.88,0,1.2,.69,1.95,1.7,1.95Z"/>
  <path class="cls-1" d="M262.11,104.12c.02,.08,.04,.23,.05,.41,0,.21,0,2.09,0,2.16v.39c-.03,.21-.03,.46-.03,.68,0,.1,.02,.15,.08,.15,.04,0,.05-.04,.05-.08,0-.08,.01-.24,.03-.32,.07-.31,.22-.39,.54-.41,.3-.02,.57-.02,2.04-.02h1.66c.9,0,1.65,0,2.04,.04,.27,.04,.48,.09,.52,.27,.02,.09,.04,.2,.04,.28,0,.06,.03,.08,.06,.08,.06,0,.07-.05,.07-.15,0-.14-.02-.36-.02-.55-.01-.2-.01-.36-.01-.38,0-.14,.01-.37,.03-.74,.01-.37,.03-.88,.03-1.59,0-.37,0-.44-.24-.51-.2-.05-.84-.12-.92-.12-.06,0-.14,0-.14,.06,0,.05,.03,.06,.14,.08,.39,.07,.57,.18,.68,.42,.1,.25,.1,.66,.1,.9,0,.93-.12,1.07-.77,1.1-.2,0-1.29,0-1.61,0h-.83s-.07-.02-.07-.07c0-.16,.02-1.09,.05-1.35,.04-.37,.2-.45,.33-.49,.12-.04,.21-.04,.31-.04,.05,0,.08-.02,.08-.07,0-.07-.1-.07-.18-.07-.07,0-.42-.02-.6-.04-.31-.03-.47-.08-.53-.08-.05,0-.07,.02-.07,.05,0,.04,.04,.08,.12,.14,.1,.09,.11,.22,.13,.44,.02,.22,.02,1.38,.02,1.5,0,.05-.03,.06-.1,.06h-2.6c-.07,0-.09-.02-.09-.06,0-.1,.01-1.13,.03-1.29,.06-.51,.17-.6,.32-.67,.11-.05,.28-.06,.34-.06,.07,0,.12-.02,.12-.08,0-.04-.06-.05-.1-.07-.11-.02-.52-.04-.62-.05-.27-.03-.38-.07-.44-.07-.05,0-.09,0-.09,.03,0,.05,.04,.09,.05,.13Z"/>
  <path class="cls-1" d="M269.19,78.29s-.06,.02-.06,.08c0,.09-.02,.29-.04,.42-.04,.28-.25,.34-.52,.37-.39,.05-1.14,.05-2.04,.05h-1.66c-1.47,0-1.74,0-2.04-.02-.33-.02-.49-.1-.54-.35-.01-.11-.03-.17-.03-.23,0-.04-.01-.08-.05-.08-.06,0-.08,.04-.08,.15,0,.28,.03,.88,.03,.92,0,.05-.03,.64-.03,.96,0,.1,.02,.15,.08,.15,.04,0,.05-.03,.05-.08,0-.07,.01-.19,.04-.29,.05-.21,.21-.3,.52-.32,.3-.02,.57-.02,2.04-.02h1.66c.9,0,1.65,0,2.04,.05,.28,.04,.48,.09,.52,.28,.02,.09,.04,.2,.04,.28,0,.06,.03,.08,.06,.08,.06,0,.07-.05,.07-.15,0-.28-.03-.88-.03-.92,0-.04,.03-.64,.03-1.16,0-.1-.03-.15-.07-.15Z"/>
  <path class="cls-1" d="M262.21,91.73s.05-.04,.05-.08c0-.06,.01-.19,.04-.29,.05-.21,.21-.3,.52-.32,.3-.02,.57-.02,2.04-.02h1.66c.9,0,1.65,0,2.04,.05,.28,.04,.48,.09,.52,.27,.02,.09,.04,.2,.04,.28,0,.06,.03,.08,.06,.08,.06,0,.07-.05,.07-.15,0-.28-.03-.88-.03-.93,0-.04,.03-.64,.03-1.16,0-.1-.03-.15-.07-.15-.03,0-.06,.02-.06,.08,0,.09-.02,.29-.04,.42-.04,.28-.25,.34-.52,.37-.39,.05-1.14,.05-2.04,.05h-1.66c-1.47,0-1.74,0-2.04-.02-.33-.02-.49-.1-.54-.35-.01-.11-.03-.17-.03-.23,0-.04-.01-.08-.05-.08-.06,0-.08,.05-.08,.15,0,.28,.03,.88,.03,.92,0,.05-.03,.65-.03,.96,0,.1,.02,.15,.08,.15Z"/>
  <path class="cls-1" d="M133.72,232.47c-.04,.11-.12,.22-.17,.3-.03,.04-.04,.08,0,.11,.05,.04,.11-.03,.16-.1,.04-.05,.29-.33,.43-.47,.22-.22,.35-.32,.39-.36,.03-.04,.04-.06,.01-.09-.03-.02-.08,0-.14,0-.14,.04-.25-.01-.44-.14-.11-.08-.21-.16-.34-.26l-.94-.75s-.03-.06,0-.11l1.63-2.02c.05-.06,.09-.07,.13-.03l1.11,.94c.28,.23,.34,.5,.31,.63-.03,.13-.11,.28-.16,.33-.04,.06-.06,.1-.02,.13,.03,.03,.08,0,.12-.03,.09-.08,.37-.39,.43-.46,.19-.19,.3-.24,.34-.3,.03-.04,.04-.08,0-.1-.03-.02-.08-.02-.14-.04-.09-.02-.21-.12-.35-.23-.18-.12-1.67-1.32-1.81-1.44l-.29-.26c-.15-.14-.35-.3-.52-.43-.08-.07-.13-.08-.16-.03-.03,.03,0,.07,.02,.09,.07,.05,.2,.15,.24,.22,.2,.24,.17,.41-.02,.67-.18,.25-.34,.45-1.26,1.6l-1.04,1.29c-.57,.7-1.04,1.28-1.32,1.56-.2,.19-.37,.32-.54,.23-.08-.04-.18-.1-.24-.15-.04-.04-.07-.02-.09,0-.04,.04-.01,.09,.07,.15,.22,.18,.7,.53,.73,.56,.04,.03,.48,.42,.88,.75,.08,.06,.14,.07,.17,.03,.02-.02,.02-.05-.02-.09-.06-.06-.22-.2-.31-.3-.2-.21-.11-.4,.04-.64,.21-.33,.68-.92,1.25-1.62l.5-.62s.07-.05,.1-.02c.12,.1,.93,.75,1.09,.92,.21,.21,.22,.44,.17,.57Z"/>
  <path class="cls-1" d="M206.93,254.63c-.07,.05-.2,.12-.34,.16-.2,.06-.51,.09-1.26-.42-1.27-.87-4.67-3.28-4.99-3.5-.26-.18-.31-.2-.36-.17-.05,.03-.05,.1,.03,.42l1.48,6.05c.12,.48,.17,.89-.17,1.18-.06,.05-.16,.13-.21,.16-.04,.03-.06,.06-.04,.1,.03,.05,.09,.03,.19-.04,.37-.24,.78-.56,.87-.61,.08-.06,.44-.26,.62-.39,.07-.05,.11-.09,.08-.14-.02-.03-.06-.03-.11,0l-.08,.05c-.13,.09-.34,.13-.45-.03-.1-.14-.18-.35-.24-.6l-.46-1.7s0-.09,.04-.11l1.68-1.13s.06-.02,.1,0l2.02,1.44c.13,.09,.13,.19,.1,.24-.03,.03-.04,.06-.02,.09,.03,.05,.12-.01,.27-.11,.55-.34,1.12-.73,1.24-.81,.08-.06,.14-.12,.11-.17-.02-.04-.06-.03-.11,0Zm-4-.91l-1.49,1s-.05,.01-.06-.04l-.73-2.58c-.04-.14,0-.17,.12-.08l2.16,1.62s.05,.05,0,.07Z"/>
  <path class="cls-1" d="M222.59,235.43c-2.11,1.52-1.75,3.92-.86,5.16,.99,1.38,3.03,2.38,5.13,.87,1.84-1.33,2.03-3.61,.8-5.32-1.28-1.78-3.35-1.94-5.07-.7Zm4.27,5.59c-1.38,.99-3.28,.61-4.56-1.17-1.21-1.67-.86-3.21,.42-4.13,1.21-.87,3.04-.69,4.36,1.15,1.6,2.23,.47,3.65-.22,4.14Z"/>
  <path class="cls-1" d="M222.13,243.27c-.04-.05-.08-.11-.13-.08-.04,.03-.03,.07,.01,.17,.16,.36,.18,.58,.03,.8-.14,.22-.49,.46-.69,.6-.77,.52-.95,.5-1.34-.02-.12-.16-.73-1.07-.91-1.33l-.47-.68s-.02-.07,.02-.09c.13-.09,.91-.6,1.14-.72,.32-.17,.48-.09,.59,0,.1,.08,.15,.16,.21,.24,.02,.04,.06,.06,.1,.03,.05-.04,0-.12-.05-.18-.03-.06-.22-.36-.3-.52-.15-.27-.21-.43-.24-.48-.03-.05-.06-.06-.08-.03-.03,.02-.04,.08-.05,.18-.02,.12-.12,.21-.29,.36-.17,.14-1.12,.8-1.23,.86-.04,.03-.06,0-.1-.05l-1.47-2.15c-.03-.06-.03-.09,0-.11,.08-.06,.94-.63,1.08-.7,.45-.24,.59-.2,.73-.11,.1,.06,.2,.19,.24,.25,.04,.06,.09,.09,.13,.06,.03-.02,.01-.08,0-.12-.05-.1-.27-.45-.31-.54-.12-.23-.15-.35-.19-.41-.03-.04-.06-.07-.08-.05-.04,.03-.05,.08-.09,.11-.05,.06-.16,.16-.3,.27-.18,.13-1.73,1.19-1.78,1.23l-.33,.2c-.18,.11-.39,.25-.57,.37-.09,.06-.11,.1-.09,.14,.02,.03,.06,.02,.1,0,.07-.04,.21-.13,.28-.15,.3-.12,.44-.04,.64,.22,.19,.23,.34,.46,1.17,1.67l.93,1.37c.51,.75,.93,1.36,1.12,1.72,.12,.25,.2,.44,.07,.58-.06,.06-.14,.14-.21,.19-.03,.02-.04,.04-.04,.06-.01,0-.02,0-.03,.01-.05,.03-.16,.1-.32,.18-.22,.1-.61,.23-1.33,.07-.78-.18-1.78-.52-2.97-.92,.28-1.12,.13-1.87-.26-2.44-.36-.54-.96-.7-1.25-.71-.61-.02-1.17,.28-1.66,.61-.24,.16-.83,.58-.91,.64-.04,.02-.55,.33-.9,.57-.08,.06-.11,.1-.08,.14,.02,.03,.06,.02,.1,0,.07-.04,.21-.13,.28-.15,.3-.12,.44-.03,.64,.23,.18,.24,.33,.46,1.15,1.68l.92,1.38c.5,.76,.91,1.38,1.09,1.73,.12,.25,.2,.44,.06,.58-.06,.06-.14,.14-.21,.19-.05,.03-.05,.07-.03,.09,.03,.05,.08,.03,.17-.02,.24-.16,.71-.51,.72-.52,.04-.02,.55-.33,.98-.62,.09-.06,.11-.11,.08-.15-.01-.02-.04-.03-.09,0-.07,.05-.26,.14-.38,.2-.26,.12-.42-.02-.59-.23-.26-.3-.67-.92-1.18-1.67l-.12-.19s-.03-.07,.01-.1l.97-.63s.08-.03,.13-.02c.29,.1,1.01,.38,1.63,.59,.84,.29,1.37,.49,1.82,.45,.28-.02,.5-.12,.94-.41l.56-.37c.1-.07,.14-.11,.15-.14,.03,0,.06-.02,.1-.05,.12-.08,.29-.22,.44-.33,.16-.11,.29-.21,.31-.22,.11-.08,.3-.2,.62-.39,.31-.2,.74-.47,1.33-.87,.3-.21,.36-.25,.28-.49-.08-.19-.37-.76-.41-.83Zm-7.72,2.39c-.1,.24-.3,.41-.49,.54-.35,.23-.75,.42-.91,.42-.05,0-.09-.02-.12-.05l-1.71-2.57s-.03-.09,0-.13c.06-.08,.26-.24,.49-.4,.84-.56,1.75-.32,2.41,.66,.4,.6,.48,1.16,.33,1.53Z"/>
  <path class="cls-1" d="M241.74,229.64c-.08,.06-.27,.21-.53,.32-.4,.15-.78-.22-1.02-.46l-4.13-4.11c-.12-.13-.2-.17-.25-.13-.05,.04-.03,.12-.01,.2l1.56,6.35-5.96-2.8c-.1-.05-.15-.06-.2-.02-.04,.04-.03,.11,.03,.2l3.33,5.21c.2,.3,.4,.61,.2,.85-.09,.11-.14,.15-.2,.2-.04,.03-.06,.08-.04,.1,.04,.05,.11,.02,.18-.03,.2-.16,.53-.47,.6-.52,.06-.05,.43-.31,.7-.53,.09-.07,.12-.12,.08-.18-.02-.02-.06-.01-.09,.01-.04,.04-.16,.12-.31,.19-.12,.07-.28,.04-.37-.07-.1-.13-.21-.26-.29-.38l-2.45-3.64,.03-.02c.24,.13,2.48,1.23,2.66,1.31,.1,.04,1.75,.8,2.23,1.01,.35,.15,.45,.19,.5,.15,.07-.06,.04-.14-.07-.58l-1.28-5.26,.02-.02,3.41,3.5c.12,.12,.21,.25,.18,.29-.03,.04-.03,.07,0,.1,.03,.04,.08,.03,.26-.1,.29-.19,1.1-.81,1.26-.94,.09-.07,.14-.14,.1-.19-.03-.03-.06-.02-.09,.01Z"/>
  <path class="cls-1" d="M268.8,187c-.02,.08-.07,.28-.11,.41-.09,.27-.3,.29-.58,.27-.4-.02-1.13-.16-2.02-.31l-3.93-.71,.23-1.16c.18-.89,.43-1.07,.71-1.05h.1c.13,.02,.17,.01,.17-.04,0-.03-.02-.07-.11-.08-.1-.02-.73-.16-1.01-.21-.06-.01-.11-.02-.12,.03,0,.04,0,.12,0,.27,0,.16-.01,.37-.07,.67l-.63,3.48c-.02,.11-.1,.46-.18,.73-.06,.24-.17,.32-.18,.39,0,.04,.1,.1,.16,.12,.07,.03,.83,.36,.92,.38,.06,.01,.09,0,.1-.03,0-.03,0-.07-.08-.11-.06-.04-.12-.08-.26-.21-.2-.19-.22-.42-.13-1l.23-1.38,3.92,.71c.89,.16,1.63,.29,2.01,.41,.26,.08,.46,.17,.46,.36,0,.09,0,.2-.01,.29-.01,.05,.01,.08,.04,.08,.06,.01,.08-.04,.1-.13,.05-.28,.13-.87,.14-.91,0-.05,.14-.62,.23-1.14,.02-.1,0-.15-.05-.16-.03,0-.05,0-.06,.06Z"/>
  <path class="cls-1" d="M254.91,214.67c-.05-.04-.11-.09-.14-.05-.03,.04-.01,.07,.05,.16,.26,.3,.33,.5,.25,.76-.07,.26-.34,.57-.5,.76-.59,.71-.78,.74-1.29,.35-.16-.12-.99-.83-1.24-1.03l-.64-.53s-.03-.06,0-.09c.1-.12,.72-.83,.9-1.01,.27-.26,.44-.22,.57-.17,.12,.05,.19,.11,.26,.17,.04,.03,.08,.04,.11,0,.04-.05-.04-.11-.09-.16-.05-.04-.31-.28-.44-.41-.22-.22-.31-.36-.36-.39-.04-.04-.07-.04-.09-.01-.02,.03-.01,.09,0,.19,.02,.12-.05,.24-.18,.42-.12,.18-.87,1.07-.94,1.17-.04,.03-.06,.02-.11-.02l-2-1.67c-.05-.04-.06-.07-.04-.1,.07-.08,.73-.87,.85-.98,.37-.36,.52-.36,.67-.31,.12,.03,.25,.13,.3,.17,.06,.05,.11,.06,.14,.02,.02-.03,0-.08-.04-.11-.07-.09-.38-.37-.45-.43-.18-.19-.24-.3-.29-.34-.04-.03-.07-.05-.09-.02-.03,.03-.02,.09-.04,.13-.04,.07-.11,.2-.22,.34-.13,.17-1.33,1.61-1.37,1.67l-.26,.28c-.14,.15-.3,.35-.44,.51-.07,.08-.08,.13-.03,.17,.03,.02,.06,0,.09-.02,.06-.06,.16-.18,.23-.23,.25-.2,.41-.16,.67,.03,.24,.18,.45,.34,1.58,1.28l1.28,1.07c.69,.58,1.27,1.05,1.54,1.34,.19,.2,.31,.37,.22,.54-.04,.08-.09,.18-.14,.25-.04,.04-.03,.08,0,.1,.04,.04,.09,.01,.15-.07,.09-.1,.22-.29,.34-.43,.12-.16,.22-.28,.23-.3,.09-.1,.24-.28,.49-.54,.24-.28,.59-.67,1.04-1.21,.23-.28,.28-.34,.14-.55-.12-.16-.57-.63-.63-.68Z"/>
  <path class="cls-1" d="M149.76,244.67l.94-1.37c.83-1.22,.98-1.43,1.16-1.67,.2-.26,.35-.35,.59-.24,.1,.04,.15,.07,.21,.11,.03,.02,.07,.02,.09,0,.03-.04,0-.09-.08-.15-.23-.16-.74-.47-.78-.5-.04-.02-.51-.38-.77-.56-.08-.06-.13-.07-.17-.02-.02,.03,0,.07,.03,.09,.06,.03,.15,.11,.22,.19,.14,.16,.13,.34-.04,.62-.15,.26-.3,.48-1.13,1.69l-.94,1.37c-.51,.75-.93,1.36-1.19,1.66-.19,.21-.34,.35-.52,.28-.08-.03-.18-.08-.25-.13-.05-.03-.08-.02-.1,0-.03,.04,0,.09,.08,.14,.23,.16,.74,.47,.78,.5,.04,.03,.51,.38,.94,.67,.09,.06,.14,.07,.17,.02,.01-.02,.01-.06-.03-.09-.07-.05-.23-.18-.33-.27-.21-.19-.14-.39-.01-.63,.18-.36,.6-.97,1.11-1.72Z"/>
  <path class="cls-1" d="M154.15,249.54c-.27,.28-.47,.38-.73,.33-.26-.05-.61-.28-.81-.42-.77-.51-.82-.69-.48-1.25,.1-.17,.72-1.07,.9-1.34l.46-.69s.05-.04,.09-.02c.13,.09,.9,.62,1.1,.79,.29,.24,.27,.42,.23,.55-.04,.12-.09,.2-.14,.28-.03,.04-.03,.08,0,.11,.05,.04,.11-.05,.15-.11,.04-.06,.25-.33,.37-.48,.2-.24,.32-.35,.35-.4,.03-.05,.03-.07,0-.09-.03-.02-.09,0-.18,.02-.12,.04-.25-.02-.44-.13-.19-.1-1.16-.75-1.26-.82-.04-.02-.03-.05,0-.11l1.44-2.16c.04-.06,.07-.07,.1-.05,.09,.06,.94,.64,1.06,.74,.39,.33,.41,.48,.38,.64-.02,.12-.1,.26-.14,.31-.04,.06-.05,.11,0,.14,.03,.02,.08-.02,.11-.05,.08-.08,.32-.41,.38-.49,.17-.2,.27-.27,.31-.32,.03-.04,.04-.08,.02-.09-.04-.03-.09-.02-.14-.03-.07-.02-.2-.1-.36-.18-.19-.11-1.74-1.16-1.8-1.19l-.31-.23c-.17-.12-.38-.26-.56-.38-.08-.06-.13-.07-.17-.02-.02,.04,0,.07,.03,.09,.07,.05,.2,.14,.25,.2,.22,.23,.2,.4,.04,.68-.15,.26-.3,.48-1.12,1.7l-.92,1.38c-.5,.75-.92,1.37-1.17,1.68-.18,.21-.34,.35-.52,.28-.08-.03-.19-.08-.26-.13-.04-.03-.08-.02-.09,0-.03,.05,0,.09,.08,.14,.12,.08,.31,.18,.46,.29,.17,.1,.3,.19,.32,.2,.12,.08,.3,.21,.6,.43,.3,.21,.72,.52,1.31,.91,.3,.2,.37,.24,.56,.08,.15-.14,.57-.63,.61-.69,.04-.05,.08-.11,.03-.15-.04-.03-.07,0-.15,.07Z"/>
  <path class="cls-1" d="M209.69,247.71c-.81-1.23-.96-1.45-1.11-1.71-.17-.28-.18-.45,0-.64,.08-.08,.12-.12,.18-.15,.03-.02,.06-.06,.03-.09-.03-.05-.08-.04-.17,.02-.24,.15-.59,.42-.64,.46-.05,.03-.5,.3-.85,.53-.08,.06-.11,.1-.08,.14,.02,.03,.06,.03,.09,0,.07-.05,.21-.13,.28-.15,.3-.12,.44-.03,.63,.22,.18,.24,.33,.46,1.14,1.69l.65,.98c.53,.81,.88,1.54,.81,2.23-.06,.52-.38,1.06-.86,1.38-.45,.3-.85,.46-1.47,.35-.55-.1-1.13-.42-1.88-1.55l-.73-1.1c-.81-1.22-.96-1.45-1.11-1.71-.17-.29-.2-.47-.01-.64,.09-.08,.13-.12,.18-.15,.03-.02,.05-.06,.03-.09-.03-.05-.08-.04-.17,.02-.24,.15-.69,.49-.76,.54-.07,.05-.57,.34-.92,.57-.08,.06-.11,.1-.08,.14,.02,.03,.06,.03,.1,0,.07-.05,.21-.12,.28-.15,.3-.11,.44-.03,.63,.23,.18,.24,.33,.46,1.14,1.69l.76,1.15c.75,1.15,1.42,1.5,2.05,1.61,.9,.16,1.72-.34,1.99-.51,.46-.31,1-.78,1.24-1.66,.26-.97-.27-1.98-.83-2.83l-.56-.84Z"/>
  <path class="cls-1" d="M164.45,249.35c.11,.04,.16,.07,.2,.1,.06,.04,.1,.04,.12,0,.03-.05-.02-.09-.11-.15-.32-.21-.6-.36-.68-.42-.09-.06-.45-.33-.8-.56-.09-.07-.16-.1-.19-.05-.02,.03-.03,.06,.02,.1,.06,.04,.24,.17,.36,.29,.2,.23,.14,.43-.19,.95l-2.56,4.05c-.08-.43-.3-1.95-.53-3.3-.35-2.1-.69-4.14-.71-4.35-.03-.13-.05-.39-.11-.44-.06-.04-.14,.03-.34,.34l-2.99,4.5c-.47,.71-.67,.91-.9,.84-.14-.04-.29-.12-.35-.17-.04-.03-.07-.03-.09,0-.04,.05,0,.09,.08,.14,.35,.23,.7,.43,.77,.48,.07,.04,.37,.28,.82,.57,.1,.06,.15,.08,.18,.03,.02-.03,0-.06-.03-.09-.07-.04-.24-.17-.37-.31-.17-.2-.11-.46,.3-1.11l2.39-3.84c.06,.45,.3,2.03,.56,3.61,.24,1.44,.61,3.35,.64,3.48,.14,.69,.18,.84,.24,.88,.06,.04,.1,0,.44-.51l3.06-4.6c.32-.47,.46-.62,.76-.5Z"/>
  <path class="cls-1" d="M143.35,235.04c.1,.05,.15,.08,.21,.11,.03,.02,.07,.03,.09,0,.04-.05,0-.09-.08-.15-.23-.17-.72-.49-.76-.52-.04-.03-.51-.4-.76-.58-.08-.06-.13-.07-.17-.02-.02,.03,0,.07,.03,.09,.05,.04,.15,.12,.22,.2,.14,.16,.12,.35-.05,.61-.16,.25-.31,.47-1.18,1.66l-.97,1.34c-.53,.74-.96,1.34-1.24,1.63-.19,.2-.35,.34-.52,.26-.08-.03-.18-.09-.25-.13-.04-.03-.08-.02-.09,0-.03,.05,0,.09,.08,.15,.23,.17,.73,.49,.77,.52,.04,.03,.5,.39,.92,.7,.08,.06,.14,.07,.17,.03,.02-.03,.02-.06-.03-.09-.07-.05-.23-.18-.32-.28-.21-.19-.13-.4,0-.63,.19-.35,.63-.96,1.15-1.69l.97-1.35c.86-1.19,1.01-1.4,1.2-1.64,.21-.26,.36-.34,.6-.23Z"/>
  <path class="cls-1" d="M146.63,243.95c-.12,.12-.46,.4-.74,.45-.53,.1-1.03-.14-1.62-.55-1.66-1.15-1.86-3.29-.83-4.77,.55-.79,1.16-1.39,2.1-1.54,.45-.07,1.14-.04,2.17,.67,.69,.47,1.13,1.09,1.25,1.51,.08,.31-.01,.71-.22,1.01-.08,.11-.11,.17-.05,.21,.05,.03,.09,0,.18-.11,.09-.11,.38-.54,.58-.78,.21-.27,.3-.34,.34-.41,.03-.05,.04-.09-.04-.15-.24-.19-.45-.4-.71-.66-.33-.33-.75-.66-1.06-.87-1.19-.82-2.15-.95-2.94-.81-1.17,.21-1.97,1-2.33,1.51-.51,.73-.94,1.75-.65,2.94,.23,.97,.82,1.8,1.98,2.61,.49,.34,1.12,.7,1.52,.79,.18,.03,.21,.03,.35-.08,.26-.21,.82-.82,.86-.87,.04-.07,.07-.13,.03-.15-.05-.04-.09-.01-.16,.06Z"/>
  <path class="cls-1" d="M168.49,251.82c-.16-.18-.37-.36-.67-.56-1-.67-2-.52-2.57,.32-.36,.53-.49,1.14-.12,2.38l.16,.53c.3,1,.32,1.47-.04,2.01-.34,.5-1.07,.8-1.82,.29-.52-.35-.89-.91-.62-1.57,.05-.12,.12-.23,.17-.31,.04-.06,.05-.09,0-.12-.04-.03-.08,0-.14,.08-.09,.12-.33,.41-.6,.8-.14,.21-.16,.24-.08,.38,.21,.37,.54,.67,.91,.91,.42,.29,.91,.48,1.4,.47,.79-.02,1.32-.54,1.53-.85,.42-.63,.53-1.26,.1-2.61l-.11-.32c-.36-1.09-.37-1.51-.07-1.96,.38-.57,1.03-.63,1.57-.26,.72,.48,.71,.95,.7,1.07-.01,.12-.11,.36-.16,.46-.03,.07-.05,.11,0,.14,.04,.02,.09-.02,.17-.14,.36-.53,.56-.77,.59-.8,.02-.04,.02-.07-.04-.11-.06-.04-.12-.09-.25-.22Z"/>
  <g>
    <path class="cls-1" d="M254.48,315.86c6.45,0,11.63-2.75,14.81-7.41l-2.96-2.06c-2.59,3.76-6.61,6.03-11.84,6.03-8.41,0-14.49-6.4-14.49-14.97s6.08-14.97,14.49-14.97c5.18,0,9.04,2.22,11.37,5.66l2.91-2.11c-3.07-4.6-7.94-6.98-14.28-6.98-10.21,0-18.46,7.56-18.46,18.4s8.25,18.41,18.46,18.41"/>
    <path class="cls-1" d="M220.47,279.1h-.64l-14.91,36.33h3.76l2.38-6.03h18.19l2.43,6.03h4.02l-15.23-36.33Zm-8.09,27.03l6.35-15.98c.69-1.69,1.43-4.28,1.43-4.28,0,0,.69,2.59,1.37,4.28l6.35,15.98h-15.5Z"/>
    <path class="cls-1" d="M185.14,279.47h-8.73v35.96h8.73c12.06,0,19.46-7.08,19.46-17.98s-7.46-17.98-19.46-17.98Zm-.26,32.52h-4.65v-29.08h4.65c10.63,0,15.71,5.98,15.71,14.54s-5.08,14.54-15.71,14.54Z"/>
    <polygon class="cls-1" points="147.86 315.43 170.5 315.43 170.5 312.04 151.67 312.04 151.67 303.05 167.8 303.05 167.8 299.72 151.67 299.72 151.67 282.85 169.76 282.85 169.76 279.47 147.86 279.47 147.86 315.43"/>
    <path class="cls-1" d="M131.83,279.1h-.64l-9.83,25.59c-.58,1.48-1.11,3.54-1.11,3.54,0,0-.48-2.06-1.06-3.54l-9.68-25.59h-.64l-11.84,36.33h3.86l7.51-23.95c.47-1.54,1-3.92,1-3.92,0,0,.58,2.38,1.16,3.92l9.36,24.33h.63l9.36-24.33c.58-1.54,1.16-3.92,1.16-3.92,0,0,.53,2.33,1,3.92l7.56,23.95h4.07l-11.9-36.33Z"/>
  </g>
</svg>