<?xml version="1.0" encoding="UTF-8"?>
<svg id="logos" xmlns="http://www.w3.org/2000/svg" viewBox="0 0 861.24 180.76">
  <defs>
    <style>
      .cls-1 {
        fill: #fff;
      }
    </style>
  </defs>
  <g>
    <path class="cls-1" d="M129.52,107.84c-5,1.33-11.22,2.99-20.78,3.01h0s-.06,0-.09,0c-.03,0-.06,0-.09,0h0c-9.55-.02-15.78-1.68-20.78-3.01-3.72-.99-6.93-1.85-10.71-1.85-6.92,0-14.55,2.23-18.08,3.4,.06,.33,.13,.64,.2,.93-.02,.02-.03,.03-.03,.03,0,0,2.66,11.12,13.91,20.42,11.25,9.3,35.33,25.93,35.33,25.93,0,0,26.58-19.09,31.01-22.27,12.86-10.35,16.78-18.58,17.98-22.63l.05,.03s.43-1.17,.66-2.51c-3.62-1.19-11.08-3.33-17.85-3.33-3.78,0-6.99,.86-10.71,1.85Z"/>
    <path class="cls-1" d="M129.52,94.44c-5,1.33-11.22,2.99-20.78,3.01h0s-.06,0-.09,0c-.03,0-.06,0-.09,0h0c-9.55-.02-15.78-1.68-20.78-3.01-3.72-.99-6.93-1.85-10.71-1.85-7.15,0-15.06,2.38-18.42,3.52v6.5c4.34-1.34,11.55-3.18,18.42-3.18,4.64,0,8.41,1,12.4,2.07,4.89,1.3,10.43,2.78,19.18,2.79,8.75-.01,14.29-1.49,19.18-2.79,3.99-1.06,7.76-2.07,12.4-2.07,6.74,0,13.82,1.77,18.18,3.1v-6.5c-3.48-1.16-11.2-3.44-18.18-3.44-3.78,0-6.99,.86-10.71,1.85Z"/>
    <path class="cls-1" d="M158.41,30.36l-30.26,52.83c-.12,.03-.24,.06-.36,.1-1.84,.49-3.78,1.01-5.94,1.46l34.7-60.58h-6.01l-35.29,61.61c-1.71,.17-3.56,.29-5.59,.32l35.48-61.93h-6.01l-35.4,61.8c-1.85-.12-3.54-.3-5.11-.53l35.1-61.28H58.65V89.2c4.34-1.34,11.55-3.18,18.42-3.18,4.64,0,8.41,1,12.4,2.07,4.89,1.3,10.43,2.78,19.18,2.79,8.75-.01,14.29-1.49,19.18-2.79,3.99-1.06,7.76-2.07,12.4-2.07,6.74,0,13.82,1.77,18.18,3.1V50.89l-17.4,30.37c-.35,0-.71-.01-1.06-.01-1.59,0-3.09,.12-4.53,.33l22.99-40.13v-11.09Zm-71.1,25.14l-1.65,7.65-1.73-7.65-7.85-1.69,7.81-1.8,1.73-7.74,1.69,7.85,7.62,1.64-7.62,1.74Z"/>
  </g>
  <g>
    <path class="cls-1" d="M749.51,155.21c23.22,0,41.89-9.91,53.32-26.69l-10.67-7.41c-9.33,13.52-23.82,21.73-42.65,21.73-30.29,0-52.19-23.06-52.19-53.92s21.9-53.9,52.19-53.9c18.65,0,32.57,8,40.94,20.37l10.48-7.6c-11.06-16.57-28.58-25.15-51.42-25.15-36.78,0-66.47,27.24-66.47,66.28s29.69,66.3,66.47,66.3"/>
    <path class="cls-1" d="M627.06,22.84h-2.29l-53.69,130.83h13.52l8.56-21.71h65.51l8.76,21.71h14.47l-54.84-130.83Zm-29.14,97.32l22.85-57.53c2.47-6.09,5.15-15.42,5.15-15.42,0,0,2.47,9.33,4.94,15.42l22.87,57.53h-55.82Z"/>
    <path class="cls-1" d="M499.84,24.17h-31.42V153.67h31.42c43.42,0,70.08-25.51,70.08-64.76s-26.86-64.74-70.08-64.74Zm-.95,117.12h-16.75V36.56h16.75c38.28,0,56.56,21.52,56.56,52.36s-18.28,52.38-56.56,52.38Z"/>
    <polygon class="cls-1" points="365.58 153.67 447.09 153.67 447.09 141.48 379.3 141.48 379.3 109.1 437.38 109.1 437.38 97.11 379.3 97.11 379.3 36.36 444.42 36.36 444.42 24.17 365.58 24.17 365.58 153.67"/>
    <path class="cls-1" d="M307.83,22.84h-2.29l-35.41,92.17c-2.1,5.33-4,12.76-4,12.76,0,0-1.73-7.43-3.82-12.76L227.47,22.84h-2.29l-42.64,130.83h13.89l27.05-86.26c1.71-5.53,3.61-14.11,3.61-14.11,0,0,2.09,8.58,4.19,14.11l33.72,87.6h2.28l33.72-87.6c2.1-5.53,4.19-14.11,4.19-14.11,0,0,1.9,8.39,3.61,14.11l27.23,86.26h14.66L307.83,22.84Z"/>
  </g>
</svg>