<?xml version="1.0" encoding="UTF-8"?>
<svg id="logos" xmlns="http://www.w3.org/2000/svg" viewBox="0 0 218.25 266.7">
  <defs>
    <style>
      .cls-1 {
        fill: #122f4a;
      }
    </style>
  </defs>
  <g>
    <path class="cls-1" d="M129.6,129.64c-5,1.33-11.22,2.99-20.78,3.01h0s-.06,0-.09,0c-.03,0-.06,0-.09,0h0c-9.55-.02-15.78-1.68-20.78-3.01-3.72-.99-6.93-1.85-10.71-1.85-6.92,0-14.55,2.23-18.08,3.4,.06,.33,.13,.64,.2,.93-.02,.02-.03,.03-.03,.03,0,0,2.66,11.12,13.91,20.42,11.25,9.3,35.33,25.93,35.33,25.93,0,0,26.58-19.09,31.01-22.27,12.86-10.35,16.78-18.58,17.98-22.63l.05,.03s.43-1.17,.66-2.51c-3.62-1.19-11.08-3.33-17.85-3.33-3.78,0-6.99,.86-10.71,1.85Z"/>
    <path class="cls-1" d="M129.6,116.23c-5,1.33-11.22,2.99-20.78,3.01h0s-.06,0-.09,0c-.03,0-.06,0-.09,0h0c-9.55-.02-15.78-1.68-20.78-3.01-3.72-.99-6.93-1.85-10.71-1.85-7.15,0-15.06,2.38-18.42,3.52v6.5c4.34-1.34,11.55-3.18,18.42-3.18,4.64,0,8.41,1,12.4,2.07,4.89,1.3,10.43,2.78,19.18,2.79,8.75-.01,14.29-1.49,19.18-2.79,3.99-1.06,7.76-2.07,12.4-2.07,6.74,0,13.82,1.77,18.18,3.1v-6.5c-3.48-1.16-11.2-3.44-18.18-3.44-3.78,0-6.99,.86-10.71,1.85Z"/>
    <path class="cls-1" d="M158.49,52.16l-30.26,52.83c-.12,.03-.24,.06-.36,.1-1.84,.49-3.78,1.01-5.94,1.46l34.7-60.58h-6.01l-35.29,61.61c-1.71,.17-3.56,.29-5.59,.32l35.48-61.93h-6.01l-35.4,61.8c-1.85-.12-3.54-.3-5.11-.53l35.1-61.28H58.73V110.99c4.34-1.34,11.55-3.18,18.42-3.18,4.64,0,8.41,1,12.4,2.07,4.89,1.3,10.43,2.78,19.18,2.79,8.75-.01,14.29-1.49,19.18-2.79,3.99-1.06,7.76-2.07,12.4-2.07,6.74,0,13.82,1.77,18.18,3.1v-38.23l-17.4,30.37c-.35,0-.71-.01-1.06-.01-1.59,0-3.09,.12-4.53,.33l22.99-40.13v-11.09Zm-71.1,25.14l-1.65,7.65-1.73-7.65-7.85-1.69,7.81-1.8,1.73-7.74,1.69,7.85,7.62,1.64-7.62,1.74Z"/>
  </g>
  <g>
    <path class="cls-1" d="M149.46,220.73c3.7,0,6.67-1.58,8.49-4.25l-1.7-1.18c-1.49,2.15-3.79,3.46-6.79,3.46-4.82,0-8.31-3.67-8.31-8.58s3.49-8.58,8.31-8.58c2.97,0,5.18,1.27,6.52,3.24l1.67-1.21c-1.76-2.64-4.55-4-8.19-4-5.86,0-10.58,4.34-10.58,10.55s4.73,10.55,10.58,10.55"/>
    <path class="cls-1" d="M129.97,199.66h-.37l-8.55,20.83h2.15l1.36-3.46h10.43l1.4,3.46h2.3l-8.73-20.83Zm-4.64,15.49l3.64-9.16c.39-.97,.82-2.46,.82-2.46,0,0,.39,1.49,.79,2.46l3.64,9.16h-8.89Z"/>
    <path class="cls-1" d="M109.71,199.87h-5v20.62h5c6.91,0,11.16-4.06,11.16-10.31s-4.28-10.31-11.16-10.31Zm-.15,18.65h-2.67v-16.67h2.67c6.09,0,9,3.43,9,8.34s-2.91,8.34-9,8.34Z"/>
    <polygon class="cls-1" points="88.34 220.48 101.32 220.48 101.32 218.54 90.52 218.54 90.52 213.39 99.77 213.39 99.77 211.48 90.52 211.48 90.52 201.81 100.89 201.81 100.89 199.87 88.34 199.87 88.34 220.48"/>
    <path class="cls-1" d="M79.15,199.66h-.36l-5.64,14.67c-.33,.85-.64,2.03-.64,2.03,0,0-.27-1.18-.61-2.03l-5.55-14.67h-.37l-6.79,20.83h2.21l4.31-13.73c.27-.88,.58-2.25,.58-2.25,0,0,.33,1.37,.67,2.25l5.37,13.95h.36l5.37-13.95c.33-.88,.67-2.25,.67-2.25,0,0,.3,1.34,.58,2.25l4.34,13.73h2.33l-6.82-20.83Z"/>
  </g>
</svg>