<?xml version="1.0" encoding="UTF-8"?>
<svg id="logos" xmlns="http://www.w3.org/2000/svg" viewBox="0 0 152.38 198.43">
  <defs>
    <style>
      .cls-1 {
        fill: #122f4a;
      }
    </style>
  </defs>
  <path class="cls-1" d="M97.15,116.48c-5,1.33-11.22,2.99-20.78,3.01h0s-.06,0-.09,0c-.03,0-.06,0-.09,0h0c-9.55-.02-15.78-1.68-20.78-3.01-3.72-.99-6.93-1.85-10.71-1.85-6.92,0-14.55,2.23-18.08,3.4,.06,.33,.13,.64,.2,.93-.02,.02-.03,.03-.03,.03,0,0,2.66,11.12,13.91,20.42,11.25,9.3,35.33,25.93,35.33,25.93,0,0,26.58-19.09,31.01-22.27,12.86-10.35,16.78-18.58,17.98-22.63l.05,.03s.43-1.17,.66-2.51c-3.62-1.19-11.08-3.33-17.85-3.33-3.78,0-6.99,.86-10.71,1.85Z"/>
  <path class="cls-1" d="M97.15,103.07c-5,1.33-11.22,2.99-20.78,3.01h0s-.06,0-.09,0c-.03,0-.06,0-.09,0h0c-9.55-.02-15.78-1.68-20.78-3.01-3.72-.99-6.93-1.85-10.71-1.85-7.15,0-15.06,2.38-18.42,3.52v6.5c4.34-1.34,11.55-3.18,18.42-3.18,4.64,0,8.41,1,12.4,2.07,4.89,1.3,10.43,2.78,19.18,2.79,8.75-.01,14.29-1.49,19.18-2.79,3.99-1.06,7.76-2.07,12.4-2.07,6.74,0,13.82,1.77,18.18,3.1v-6.5c-3.48-1.16-11.2-3.44-18.18-3.44-3.78,0-6.99,.86-10.71,1.85Z"/>
  <path class="cls-1" d="M126.04,39l-30.26,52.83c-.12,.03-.24,.06-.36,.1-1.84,.49-3.78,1.01-5.94,1.46l34.7-60.58h-6.01l-35.29,61.61c-1.71,.17-3.56,.29-5.59,.32l35.48-61.93h-6.01l-35.4,61.8c-1.85-.12-3.54-.3-5.11-.53l35.1-61.28H26.28V97.83c4.34-1.34,11.55-3.18,18.42-3.18,4.64,0,8.41,1,12.4,2.07,4.89,1.3,10.43,2.78,19.18,2.79,8.75-.01,14.29-1.49,19.18-2.79,3.99-1.06,7.76-2.07,12.4-2.07,6.74,0,13.82,1.77,18.18,3.1V59.53l-17.4,30.37c-.35,0-.71-.01-1.06-.01-1.59,0-3.09,.12-4.53,.33l22.99-40.13v-11.09Zm-71.1,25.14l-1.65,7.65-1.73-7.65-7.85-1.69,7.81-1.8,1.73-7.74,1.69,7.85,7.62,1.64-7.62,1.74Z"/>
</svg>