<?xml version="1.0" encoding="UTF-8"?>
<svg id="logos" xmlns="http://www.w3.org/2000/svg" viewBox="0 0 861.24 246.07">
  <defs>
    <style>
      .cls-1 {
        fill: #122f4a;
      }
    </style>
  </defs>
  <g>
    <path class="cls-1" d="M129.44,122.51c-5,1.33-11.22,2.99-20.78,3.01h0s-.06,0-.09,0c-.03,0-.06,0-.09,0h0c-9.55-.02-15.78-1.68-20.78-3.01-3.72-.99-6.93-1.85-10.71-1.85-6.92,0-14.55,2.23-18.08,3.4,.06,.33,.13,.64,.2,.93-.02,.02-.03,.03-.03,.03,0,0,2.66,11.12,13.91,20.42,11.25,9.3,35.33,25.93,35.33,25.93,0,0,26.58-19.09,31.01-22.27,12.86-10.35,16.78-18.58,17.98-22.63l.05,.03s.43-1.17,.66-2.51c-3.62-1.19-11.08-3.33-17.85-3.33-3.78,0-6.99,.86-10.71,1.85Z"/>
    <path class="cls-1" d="M129.44,109.11c-5,1.33-11.22,2.99-20.78,3.01h0s-.06,0-.09,0c-.03,0-.06,0-.09,0h0c-9.55-.02-15.78-1.68-20.78-3.01-3.72-.99-6.93-1.85-10.71-1.85-7.15,0-15.06,2.38-18.42,3.52v6.5c4.34-1.34,11.55-3.18,18.42-3.18,4.64,0,8.41,1,12.4,2.07,4.89,1.3,10.43,2.78,19.18,2.79,8.75-.01,14.29-1.49,19.18-2.79,3.99-1.06,7.76-2.07,12.4-2.07,6.74,0,13.82,1.77,18.18,3.1v-6.5c-3.48-1.16-11.2-3.44-18.18-3.44-3.78,0-6.99,.86-10.71,1.85Z"/>
    <path class="cls-1" d="M158.33,45.03l-30.26,52.83c-.12,.03-.24,.06-.36,.1-1.84,.49-3.78,1.01-5.94,1.46l34.7-60.58h-6.01l-35.29,61.61c-1.71,.17-3.56,.29-5.59,.32l35.48-61.93h-6.01l-35.4,61.8c-1.85-.12-3.54-.3-5.11-.53l35.1-61.28H58.57V103.87c4.34-1.34,11.55-3.18,18.42-3.18,4.64,0,8.41,1,12.4,2.07,4.89,1.3,10.43,2.78,19.18,2.79,8.75-.01,14.29-1.49,19.18-2.79,3.99-1.06,7.76-2.07,12.4-2.07,6.74,0,13.82,1.77,18.18,3.1v-38.23l-17.4,30.37c-.35,0-.71-.01-1.06-.01-1.59,0-3.09,.12-4.53,.33l22.99-40.13v-11.09Zm-71.1,25.14l-1.65,7.65-1.73-7.65-7.85-1.69,7.81-1.8,1.73-7.74,1.69,7.85,7.62,1.64-7.62,1.74Z"/>
  </g>
  <g>
    <path class="cls-1" d="M749.43,169.88c23.22,0,41.89-9.91,53.32-26.69l-10.67-7.41c-9.33,13.52-23.82,21.73-42.65,21.73-30.29,0-52.19-23.06-52.19-53.92s21.9-53.9,52.19-53.9c18.65,0,32.57,8,40.94,20.37l10.48-7.6c-11.06-16.57-28.58-25.15-51.42-25.15-36.78,0-66.47,27.24-66.47,66.28s29.69,66.3,66.47,66.3"/>
    <path class="cls-1" d="M626.97,37.51h-2.29l-53.69,130.83h13.52l8.56-21.71h65.51l8.76,21.71h14.47l-54.84-130.83Zm-29.14,97.32l22.85-57.53c2.47-6.09,5.15-15.42,5.15-15.42,0,0,2.47,9.33,4.94,15.42l22.87,57.53h-55.82Z"/>
    <path class="cls-1" d="M499.75,38.84h-31.42V168.34h31.42c43.42,0,70.08-25.51,70.08-64.76s-26.86-64.74-70.08-64.74Zm-.95,117.12h-16.75V51.23h16.75c38.28,0,56.56,21.52,56.56,52.36s-18.28,52.38-56.56,52.38Z"/>
    <polygon class="cls-1" points="365.5 168.34 447.01 168.34 447.01 156.15 379.22 156.15 379.22 123.78 437.29 123.78 437.29 111.79 379.22 111.79 379.22 51.03 444.34 51.03 444.34 38.84 365.5 38.84 365.5 168.34"/>
    <path class="cls-1" d="M307.75,37.51h-2.29l-35.41,92.17c-2.1,5.33-4,12.76-4,12.76,0,0-1.73-7.43-3.82-12.76l-34.84-92.17h-2.29l-42.64,130.83h13.89l27.05-86.26c1.71-5.53,3.61-14.11,3.61-14.11,0,0,2.09,8.58,4.19,14.11l33.72,87.6h2.28l33.72-87.6c2.1-5.53,4.19-14.11,4.19-14.11,0,0,1.9,8.39,3.61,14.11l27.23,86.26h14.66l-42.85-130.83Z"/>
  </g>
  <g>
    <path class="cls-1" d="M58.98,189.83h3.4v28.68h-3.4v-28.68Z"/>
    <path class="cls-1" d="M68.95,204.05c0-1.74-.16-3.24-.16-4.5h3c0,1.01,.08,2.07,.08,3.12h.08c.85-1.86,3.2-3.61,6.32-3.61,4.98,0,7.21,3.16,7.21,7.74v11.71h-3.16v-11.38c0-3.16-1.38-5.15-4.33-5.15-4.09,0-5.87,2.96-5.87,7.29v9.24h-3.16v-14.46Z"/>
    <path class="cls-1" d="M91.88,213.53c1.26,1.54,2.63,2.55,4.86,2.55,1.98,0,4.17-.85,4.17-2.92s-2.03-2.55-4.05-3c-3.61-.81-6.68-1.58-6.68-5.51,0-3.69,3.56-5.59,7.09-5.59,2.67,0,5.15,1.01,6.44,3.44l-2.63,1.74c-.81-1.34-2.15-2.27-4.01-2.27-1.74,0-3.73,.85-3.73,2.63,0,1.58,2.27,2.27,4.78,2.75,3.36,.65,6.2,1.86,6.2,5.67,0,4.29-3.81,5.96-7.58,5.96-3.2,0-5.51-.85-7.37-3.52l2.51-1.94Z"/>
    <path class="cls-1" d="M119.1,202.23h-5.59v9.48c0,2.43,.04,4.38,2.84,4.38,.93,0,1.94-.2,2.8-.65l.12,2.88c-1.09,.49-2.51,.69-3.69,.69-4.5,0-5.23-2.43-5.23-6.36v-10.41h-4.13v-2.67h4.13v-5.39h3.16v5.39h5.59v2.67Z"/>
    <path class="cls-1" d="M124.86,189.83c1.3,0,2.31,1.05,2.31,2.31,0,1.34-.97,2.31-2.31,2.31s-2.31-.97-2.31-2.31c0-1.26,1.01-2.31,2.31-2.31Zm-1.58,9.72h3.16v18.96h-3.16v-18.96Z"/>
    <path class="cls-1" d="M143.09,202.23h-5.59v9.48c0,2.43,.04,4.38,2.84,4.38,.93,0,1.94-.2,2.8-.65l.12,2.88c-1.09,.49-2.51,.69-3.69,.69-4.5,0-5.23-2.43-5.23-6.36v-10.41h-4.13v-2.67h4.13v-5.39h3.16v5.39h5.59v2.67Z"/>
    <path class="cls-1" d="M163.5,214.02c0,1.74,.16,3.24,.16,4.5h-3c0-1.01-.08-2.07-.08-3.12h-.08c-.85,1.86-3.2,3.61-6.32,3.61-4.98,0-7.21-3.16-7.21-7.74v-11.71h3.16v11.38c0,3.16,1.38,5.15,4.33,5.15,4.09,0,5.87-2.96,5.87-7.29v-9.24h3.16v14.46Z"/>
    <path class="cls-1" d="M179.87,202.23h-5.59v9.48c0,2.43,.04,4.38,2.84,4.38,.93,0,1.94-.2,2.8-.65l.12,2.88c-1.09,.49-2.51,.69-3.69,.69-4.5,0-5.23-2.43-5.23-6.36v-10.41h-4.13v-2.67h4.13v-5.39h3.16v5.39h5.59v2.67Z"/>
    <path class="cls-1" d="M192.79,199.07c5.83,0,10.13,4.05,10.13,9.97s-4.29,9.97-10.13,9.97-10.13-4.05-10.13-9.97,4.29-9.97,10.13-9.97Zm0,17.02c4.09,0,6.73-3.08,6.73-7.05s-2.63-7.05-6.73-7.05-6.73,3.08-6.73,7.05,2.63,7.05,6.73,7.05Z"/>
    <path class="cls-1" d="M217.99,204.17c0-8.67,6.28-15.07,14.99-15.07s14.99,6.4,14.99,15.07-6.28,15.07-14.99,15.07-14.99-6.4-14.99-15.07Zm26.33,0c0-6.6-4.62-11.91-11.34-11.91s-11.34,5.31-11.34,11.91,4.62,11.91,11.34,11.91,11.34-5.31,11.34-11.91Z"/>
    <path class="cls-1" d="M262.27,202.23h-4.62v16.29h-3.16v-16.29h-4.13v-2.67h4.13v-4.25c0-4.62,1.62-7.9,6.73-7.9,.81,0,1.82,.16,2.43,.49l-.45,2.84c-.69-.24-1.42-.4-2.15-.4-3.28,0-3.4,2.39-3.4,5.67v3.57h4.62v2.67Zm4.5-12.4c1.3,0,2.31,1.05,2.31,2.31,0,1.34-.97,2.31-2.31,2.31s-2.31-.97-2.31-2.31c0-1.26,1.01-2.31,2.31-2.31Zm-1.58,9.72h3.16v18.96h-3.16v-18.96Z"/>
    <path class="cls-1" d="M288.12,204.29c-1.34-1.62-2.88-2.31-4.78-2.31-4.25,0-6.4,3.16-6.4,7.05s2.55,7.05,6.4,7.05c2.07,0,3.65-.73,4.82-2.35l2.35,2.23c-1.82,2.11-4.42,3.04-7.17,3.04-5.87,0-9.8-4.13-9.8-9.97s3.97-9.97,9.8-9.97c2.8,0,5.39,.93,7.29,3l-2.51,2.23Z"/>
    <path class="cls-1" d="M296.02,189.83c1.3,0,2.31,1.05,2.31,2.31,0,1.34-.97,2.31-2.31,2.31s-2.31-.97-2.31-2.31c0-1.26,1.01-2.31,2.31-2.31Zm-1.58,9.72h3.16v18.96h-3.16v-18.96Z"/>
    <path class="cls-1" d="M303.63,201.98c1.94-1.99,4.78-2.92,7.54-2.92,5.59,0,7.94,2.67,7.94,8.02v8.14c0,1.09,.12,2.31,.28,3.28h-3.04c-.2-.85-.2-2.03-.2-2.84h-.08c-1.26,1.94-3.36,3.32-6.24,3.32-3.85,0-7.05-1.94-7.05-5.63,0-6.28,7.29-6.64,11.95-6.64h1.22v-.57c0-2.75-1.74-4.17-4.7-4.17-2.03,0-4.13,.69-5.63,2.07l-1.98-2.07Zm9.16,7.41c-4.01,0-6.6,1.09-6.6,3.65,0,2.39,1.78,3.28,4.17,3.28,3.65,0,5.51-2.63,5.59-5.71v-1.22h-3.16Z"/>
    <path class="cls-1" d="M325.18,187.89h3.16v30.63h-3.16v-30.63Z"/>
    <path class="cls-1" d="M361.65,215.15h-.08c-1.18,2.15-3.89,3.85-7.29,3.85-5.31,0-9.48-4.29-9.48-9.97s4.01-9.97,9.97-9.97c2.75,0,5.06,1.22,6.81,3.24h.08v-14.42h3.16v30.63h-3.16v-3.36Zm-6.73-13.17c-4.09,0-6.73,3.08-6.73,7.05s2.63,7.05,6.73,7.05,6.73-3.08,6.73-7.05-2.63-7.05-6.73-7.05Z"/>
    <path class="cls-1" d="M387.57,215.07c-2.23,2.88-4.9,3.93-8.43,3.93-5.96,0-9.6-4.46-9.6-9.97,0-5.87,4.13-9.97,9.72-9.97s8.99,3.65,8.99,9.93v1.01h-15.31c.24,3.28,2.75,6.08,6.2,6.08,2.71,0,4.54-.97,6.04-2.88l2.39,1.86Zm-2.71-7.74c-.12-3.2-2.23-5.35-5.71-5.35s-5.79,2.15-6.2,5.35h11.91Z"/>
    <path class="cls-1" d="M404.99,189.83h17.79v3.16h-14.38v9.48h13.37v3.16h-13.37v12.88h-3.4v-28.68Z"/>
    <path class="cls-1" d="M435.99,199.07c5.83,0,10.13,4.05,10.13,9.97s-4.29,9.97-10.13,9.97-10.13-4.05-10.13-9.97,4.29-9.97,10.13-9.97Zm0,17.02c4.09,0,6.73-3.08,6.73-7.05s-2.63-7.05-6.73-7.05-6.73,3.08-6.73,7.05,2.63,7.05,6.73,7.05Z"/>
    <path class="cls-1" d="M451.02,204.05c0-1.74-.16-3.24-.16-4.5h3c0,1.01,.08,2.07,.08,3.12h.08c.85-1.86,3.2-3.61,6.32-3.61,.4,0,.85,.04,1.3,.2l-.2,3.2c-.53-.16-1.13-.24-1.7-.24-3.85,0-5.55,2.71-5.55,7.05v9.24h-3.16v-14.46Z"/>
    <path class="cls-1" d="M465.27,204.05c0-1.74-.16-3.24-.16-4.5h3c0,1.01,.08,2.07,.08,3.12h.08c.85-1.86,3.2-3.61,6.32-3.61,4.09,0,5.39,2.31,6,3.61,1.38-2.23,3.12-3.61,6-3.61,5.43,0,7.21,3.04,7.21,7.94v11.51h-3.16v-11.34c0-2.63-.93-5.19-4.62-5.19-2.67,0-4.9,2.19-4.9,5.59v10.94h-3.16v-10.74c0-4.17-1.05-5.79-3.65-5.79-4.09,0-5.87,2.96-5.87,7.29v9.24h-3.16v-14.46Z"/>
    <path class="cls-1" d="M499.55,201.98c1.94-1.99,4.78-2.92,7.54-2.92,5.59,0,7.94,2.67,7.94,8.02v8.14c0,1.09,.12,2.31,.28,3.28h-3.04c-.2-.85-.2-2.03-.2-2.84h-.08c-1.26,1.94-3.36,3.32-6.24,3.32-3.85,0-7.05-1.94-7.05-5.63,0-6.28,7.29-6.64,11.95-6.64h1.22v-.57c0-2.75-1.74-4.17-4.7-4.17-2.03,0-4.13,.69-5.63,2.07l-1.98-2.07Zm9.16,7.41c-4.01,0-6.6,1.09-6.6,3.65,0,2.39,1.78,3.28,4.17,3.28,3.65,0,5.51-2.63,5.59-5.71v-1.22h-3.16Z"/>
    <path class="cls-1" d="M534.31,204.29c-1.34-1.62-2.88-2.31-4.78-2.31-4.25,0-6.4,3.16-6.4,7.05s2.55,7.05,6.4,7.05c2.07,0,3.65-.73,4.82-2.35l2.35,2.23c-1.82,2.11-4.42,3.04-7.17,3.04-5.87,0-9.8-4.13-9.8-9.97s3.97-9.97,9.8-9.97c2.8,0,5.39,.93,7.29,3l-2.51,2.23Z"/>
    <path class="cls-1" d="M542.21,189.83c1.3,0,2.31,1.05,2.31,2.31,0,1.34-.97,2.31-2.31,2.31s-2.31-.97-2.31-2.31c0-1.26,1.01-2.31,2.31-2.31Zm-1.58,9.72h3.16v18.96h-3.16v-18.96Z"/>
    <path class="cls-1" d="M559.1,199.07c5.83,0,10.13,4.05,10.13,9.97s-4.29,9.97-10.13,9.97-10.13-4.05-10.13-9.97,4.29-9.97,10.13-9.97Zm0,17.02c4.09,0,6.73-3.08,6.73-7.05s-2.63-7.05-6.73-7.05-6.73,3.08-6.73,7.05,2.63,7.05,6.73,7.05Zm1.42-26.9h4.46l-5.79,5.83h-2.88l4.21-5.83Z"/>
    <path class="cls-1" d="M574.13,204.05c0-1.74-.16-3.24-.16-4.5h3c0,1.01,.08,2.07,.08,3.12h.08c.85-1.86,3.2-3.61,6.32-3.61,4.98,0,7.21,3.16,7.21,7.74v11.71h-3.16v-11.38c0-3.16-1.38-5.15-4.33-5.15-4.09,0-5.87,2.96-5.87,7.29v9.24h-3.16v-14.46Z"/>
    <path class="cls-1" d="M608.48,189.83h8.51c5.27,0,10.05,1.86,10.05,7.86s-5.35,7.94-9.4,7.94h-5.75v12.88h-3.4v-28.68Zm3.4,12.64h5.75c3.4,0,5.75-1.54,5.75-4.74s-2.35-4.74-5.75-4.74h-5.75v9.48Z"/>
    <path class="cls-1" d="M631.94,204.05c0-1.74-.16-3.24-.16-4.5h3c0,1.01,.08,2.07,.08,3.12h.08c.85-1.86,3.2-3.61,6.32-3.61,.41,0,.85,.04,1.3,.2l-.2,3.2c-.53-.16-1.13-.24-1.7-.24-3.85,0-5.55,2.71-5.55,7.05v9.24h-3.16v-14.46Z"/>
    <path class="cls-1" d="M654.5,199.07c5.83,0,10.13,4.05,10.13,9.97s-4.29,9.97-10.13,9.97-10.13-4.05-10.13-9.97,4.29-9.97,10.13-9.97Zm0,17.02c4.09,0,6.73-3.08,6.73-7.05s-2.63-7.05-6.73-7.05-6.73,3.08-6.73,7.05,2.63,7.05,6.73,7.05Z"/>
    <path class="cls-1" d="M671.15,202.23h-4.13v-2.67h4.13v-4.25c0-4.62,1.62-7.9,6.73-7.9,.81,0,1.82,.16,2.43,.49l-.45,2.84c-.69-.24-1.42-.4-2.15-.4-3.28,0-3.4,2.39-3.4,5.67v3.57h4.62v2.67h-4.62v16.29h-3.16v-16.29Z"/>
    <path class="cls-1" d="M699.23,215.07c-2.23,2.88-4.9,3.93-8.43,3.93-5.96,0-9.6-4.46-9.6-9.97,0-5.87,4.13-9.97,9.72-9.97s8.99,3.65,8.99,9.93v1.01h-15.31c.24,3.28,2.75,6.08,6.2,6.08,2.71,0,4.54-.97,6.04-2.88l2.39,1.86Zm-2.71-7.74c-.12-3.2-2.23-5.35-5.71-5.35s-5.79,2.15-6.2,5.35h11.91Z"/>
    <path class="cls-1" d="M705.23,213.53c1.26,1.54,2.63,2.55,4.86,2.55,1.98,0,4.17-.85,4.17-2.92s-2.03-2.55-4.05-3c-3.61-.81-6.68-1.58-6.68-5.51,0-3.69,3.56-5.59,7.09-5.59,2.67,0,5.15,1.01,6.44,3.44l-2.63,1.74c-.81-1.34-2.15-2.27-4.01-2.27-1.74,0-3.73,.85-3.73,2.63,0,1.58,2.27,2.27,4.78,2.75,3.36,.65,6.2,1.86,6.2,5.67,0,4.29-3.81,5.96-7.58,5.96-3.2,0-5.51-.85-7.37-3.52l2.51-1.94Z"/>
    <path class="cls-1" d="M723.94,189.83c1.3,0,2.31,1.05,2.31,2.31,0,1.34-.97,2.31-2.31,2.31s-2.31-.97-2.31-2.31c0-1.26,1.01-2.31,2.31-2.31Zm-1.58,9.72h3.16v18.96h-3.16v-18.96Z"/>
    <path class="cls-1" d="M740.83,199.07c5.83,0,10.13,4.05,10.13,9.97s-4.29,9.97-10.13,9.97-10.13-4.05-10.13-9.97,4.29-9.97,10.13-9.97Zm0,17.02c4.09,0,6.73-3.08,6.73-7.05s-2.63-7.05-6.73-7.05-6.73,3.08-6.73,7.05,2.63,7.05,6.73,7.05Z"/>
    <path class="cls-1" d="M755.86,204.05c0-1.74-.16-3.24-.16-4.5h3c0,1.01,.08,2.07,.08,3.12h.08c.85-1.86,3.2-3.61,6.32-3.61,4.98,0,7.21,3.16,7.21,7.74v11.71h-3.16v-11.38c0-3.16-1.38-5.15-4.33-5.15-4.09,0-5.87,2.96-5.87,7.29v9.24h-3.16v-14.46Z"/>
    <path class="cls-1" d="M778.15,201.98c1.94-1.99,4.78-2.92,7.54-2.92,5.59,0,7.94,2.67,7.94,8.02v8.14c0,1.09,.12,2.31,.28,3.28h-3.04c-.2-.85-.2-2.03-.2-2.84h-.08c-1.26,1.94-3.36,3.32-6.24,3.32-3.85,0-7.05-1.94-7.05-5.63,0-6.28,7.29-6.64,11.95-6.64h1.22v-.57c0-2.75-1.74-4.17-4.7-4.17-2.03,0-4.13,.69-5.63,2.07l-1.98-2.07Zm9.16,7.41c-4.01,0-6.6,1.09-6.6,3.65,0,2.39,1.78,3.28,4.17,3.28,3.65,0,5.51-2.63,5.59-5.71v-1.22h-3.16Z"/>
    <path class="cls-1" d="M799.7,187.89h3.16v30.63h-3.16v-30.63Z"/>
  </g>
</svg>